<svg width="324" height="43" viewBox="0 0 324 43" fill="none" xmlns="http://www.w3.org/2000/svg">
<path fill-rule="evenodd" clip-rule="evenodd" d="M13.5358 3.67378C13.9752 2.50332 15.0943 1.72801 16.3445 1.72801L23.1605 1.72801C24.4107 1.72801 25.5298 2.50332 25.9692 3.67378L38.8331 37.9458C39.179 38.8671 39.0509 39.8995 38.4905 40.7084C37.9301 41.5174 37.0086 42 36.0245 42H28.3445C27.0652 42 25.9266 41.1888 25.5089 39.9796L23.4709 34.08L15.7461 34.08L13.7081 39.9796C13.2903 41.1888 12.1518 42 10.8725 42H3.48049C2.49638 42 1.57486 41.5174 1.01445 40.7084C0.454032 39.8995 0.325998 38.8671 0.671822 37.9458L13.5358 3.67378ZM13.6085 31.08H25.6085L28.3445 39H36.0245L23.1605 4.72801L16.3445 4.72801L3.48049 39H10.8725L13.6085 31.08ZM19.5605 12.888L15.4325 25.176H23.7365L19.5605 12.888ZM75.4201 4.72801C75.4201 3.07116 76.7633 1.72801 78.4201 1.72801L90.7561 1.72801C93.4424 1.72801 95.8312 1.97947 97.835 2.56768C99.7707 3.12687 101.513 3.94989 102.897 5.14894C104.231 6.30519 105.215 7.72947 105.75 9.40658C106.244 10.8612 106.476 12.3975 106.476 13.992C106.476 15.781 106.089 17.4948 105.31 19.0964C105.027 19.6768 104.681 20.2096 104.28 20.6986C104.97 21.3656 105.56 22.1188 106.011 22.9661C106.525 23.8761 106.893 24.8457 107.087 25.8686C107.287 26.7651 107.388 27.6715 107.388 28.584C107.388 30.3292 107.117 32.0155 106.559 33.6239C105.977 35.3939 104.972 36.9241 103.588 38.1829C102.212 39.4652 100.497 40.3873 98.5688 41.0301C96.5365 41.7075 94.1772 42 91.5721 42H78.4201C76.7633 42 75.4201 40.6569 75.4201 39V4.72801ZM101.556 35.976C102.58 35.048 103.3 33.944 103.716 32.664C104.164 31.384 104.388 30.024 104.388 28.584C104.388 27.88 104.308 27.176 104.148 26.472C104.02 25.768 103.764 25.08 103.38 24.408C103.062 23.8005 102.613 23.2322 102.033 22.7031C101.972 22.647 101.909 22.5913 101.844 22.536C101.204 21.928 100.372 21.352 99.3481 20.808C100.451 20.2346 101.311 19.5775 101.927 18.8368C102.205 18.5029 102.433 18.1519 102.612 17.784C103.188 16.6 103.476 15.336 103.476 13.992C103.476 12.68 103.284 11.464 102.9 10.344C102.548 9.22402 101.892 8.24801 100.932 7.41601C99.9721 6.58401 98.6601 5.92801 96.9961 5.44801C95.3641 4.96801 93.2841 4.72801 90.7561 4.72801L78.4201 4.72801V39H91.5721C93.9721 39 95.9881 38.728 97.6201 38.184C99.2521 37.64 100.564 36.904 101.556 35.976ZM94.2601 33.048C95.0601 32.824 95.7001 32.504 96.1801 32.088C96.6601 31.64 96.9961 31.128 97.1881 30.552C97.3801 29.976 97.4761 29.32 97.4761 28.584C97.4761 27.112 97.0761 25.992 96.2761 25.224C95.4761 24.456 94.0681 24.072 92.0521 24.072H85.3321V33.384H91.3321C92.5161 33.384 93.4921 33.272 94.2601 33.048ZM88.3321 30.384H91.3321C92.3543 30.384 93.0219 30.2842 93.4201 30.168L93.4512 30.1591C93.879 30.0394 94.0913 29.9141 94.1805 29.8486C94.2877 29.7381 94.3236 29.6587 94.3421 29.6033C94.4131 29.3902 94.4761 29.0637 94.4761 28.584C94.4761 27.727 94.2727 27.465 94.2113 27.4009C94.1851 27.3841 94.0779 27.3217 93.8308 27.2543C93.4608 27.1534 92.8869 27.072 92.0521 27.072H88.3321V30.384ZM93.4687 13.7579C93.4592 13.7517 93.4498 13.7453 93.4403 13.7389C93.4401 13.7388 93.4406 13.7391 93.4403 13.7389M93.4687 13.7579C93.4881 13.83 93.5161 13.9782 93.5161 14.232C93.5161 14.6255 93.4627 14.8602 93.4198 14.983C93.4032 15.0305 93.3877 15.0635 93.3745 15.0864C93.3351 15.1029 93.2705 15.1266 93.1738 15.1529C92.8623 15.2375 92.349 15.312 91.5721 15.312H88.3321V13.344H90.5161C91.478 13.344 92.1994 13.4124 92.7177 13.5149C92.9728 13.5654 93.1552 13.6197 93.2787 13.666C93.3943 13.7093 93.4403 13.739 93.4403 13.7389M85.3321 10.344H90.5161C92.6921 10.344 94.2281 10.648 95.1241 11.256C96.0521 11.832 96.5161 12.824 96.5161 14.232C96.5161 15.544 96.1641 16.552 95.4601 17.256C94.7561 17.96 93.4601 18.312 91.5721 18.312H85.3321V10.344ZM145.065 30.3376L145.052 30.3007C144.196 27.7336 143.794 24.9091 143.794 21.864C143.794 18.8189 144.196 15.9945 145.052 13.4273L145.065 13.3905C145.949 10.8475 147.228 8.60278 148.93 6.70764L148.953 6.6828C150.696 4.78397 152.791 3.33387 155.202 2.33889C157.634 1.33521 160.303 0.864014 163.162 0.864014C166.048 0.864014 168.734 1.33343 171.171 2.33889C173.588 3.33644 175.666 4.79649 177.358 6.72079C179.063 8.62269 180.326 10.8759 181.176 13.4273C182.032 15.9945 182.434 18.8189 182.434 21.864C182.434 24.9015 182.034 27.7194 181.183 30.2814C180.364 32.8405 179.115 35.1011 177.405 37.0084C175.713 38.9321 173.635 40.3918 171.219 41.3891C168.778 42.3963 166.074 42.864 163.162 42.864C160.277 42.864 157.59 42.3946 155.154 41.3891C152.737 40.3918 150.649 38.9347 148.93 37.0204C147.228 35.1252 145.949 32.8805 145.065 30.3376ZM178.33 29.352C179.066 27.144 179.434 24.648 179.434 21.864C179.434 19.08 179.066 16.584 178.33 14.376C177.594 12.168 176.522 10.28 175.114 8.71201C173.738 7.14402 172.042 5.94402 170.026 5.11201C168.01 4.28001 165.722 3.86401 163.162 3.86401C160.634 3.86401 158.362 4.28001 156.346 5.11201C154.33 5.94402 152.602 7.14402 151.162 8.71201C149.754 10.28 148.666 12.168 147.898 14.376C147.162 16.584 146.794 19.08 146.794 21.864C146.794 24.648 147.162 27.144 147.898 29.352C148.666 31.56 149.754 33.448 151.162 35.016C152.57 36.584 154.282 37.784 156.298 38.616C158.314 39.448 160.602 39.864 163.162 39.864C165.754 39.864 168.058 39.448 170.074 38.616C172.09 37.784 173.786 36.584 175.162 35.016C176.57 33.448 177.626 31.56 178.33 29.352ZM167.398 14.8789L167.385 14.861C166.582 13.7264 165.349 13.008 163.114 13.008C160.879 13.008 159.646 13.7264 158.843 14.861L158.83 14.8789C157.866 16.2201 157.186 18.4206 157.186 21.864C157.186 25.3459 157.869 27.5595 158.83 28.8971C159.626 30.0039 160.861 30.72 163.114 30.72C165.368 30.72 166.603 30.0039 167.398 28.8971C168.36 27.5595 169.042 25.3459 169.042 21.864C169.042 18.4206 168.362 16.2201 167.398 14.8789ZM220.079 4.72801C220.079 3.07116 221.423 1.72801 223.079 1.72801L230.231 1.72801C231.888 1.72801 233.231 3.07116 233.231 4.72801V25.128C233.231 27.7922 233.719 29.1909 234.194 29.8435C234.457 30.2053 235.072 30.72 236.903 30.72C238.742 30.72 239.311 30.2032 239.539 29.8802L239.55 29.8639C239.555 29.8571 239.56 29.8503 239.565 29.8435C240.04 29.1909 240.527 27.7922 240.527 25.128V4.72801C240.527 3.07116 241.871 1.72801 243.527 1.72801L250.679 1.72801C252.336 1.72801 253.679 3.07116 253.679 4.72801V25.128C253.679 27.9526 253.332 30.5248 252.555 32.778C251.794 34.9864 250.67 36.9223 249.133 38.5009L249.105 38.5293C247.56 40.0745 245.685 41.1738 243.548 41.8514C241.496 42.5439 239.252 42.864 236.855 42.864C234.418 42.864 232.137 42.5417 230.051 41.8461L230.035 41.8407C227.934 41.1273 226.09 40.013 224.558 38.4813L224.53 38.4529C222.973 36.8539 221.862 34.8778 221.136 32.6236C220.408 30.3633 220.079 27.798 220.079 24.984V4.72801ZM242.615 39C244.343 38.456 245.799 37.592 246.983 36.408C248.167 35.192 249.079 33.656 249.719 31.8C250.359 29.944 250.679 27.72 250.679 25.128V4.72801L243.527 4.72801V25.128C243.527 28.04 243.015 30.2 241.991 31.608C240.999 33.016 239.303 33.72 236.903 33.72C234.503 33.72 232.791 33.016 231.767 31.608C230.743 30.2 230.231 28.04 230.231 25.128V4.72801L223.079 4.72801V24.984C223.079 27.576 223.383 29.816 223.991 31.704C224.599 33.592 225.495 35.144 226.679 36.36C227.863 37.544 229.303 38.424 230.999 39C232.727 39.576 234.679 39.864 236.855 39.864C238.999 39.864 240.919 39.576 242.615 39ZM292.889 13.92C291.232 13.92 289.889 12.5769 289.889 10.92V4.72801C289.889 3.07116 291.232 1.72801 292.889 1.72801L320.729 1.72801C322.385 1.72801 323.729 3.07116 323.729 4.72801V10.92C323.729 12.5769 322.385 13.92 320.729 13.92L313.409 13.92V39C313.409 40.6569 312.065 42 310.409 42H303.209C301.552 42 300.209 40.6569 300.209 39V13.92L292.889 13.92ZM310.409 10.92L320.729 10.92V4.72801L292.889 4.72801V10.92L303.209 10.92V39H310.409V10.92ZM169.834 30.648C168.362 32.696 166.122 33.72 163.114 33.72C160.106 33.72 157.866 32.696 156.394 30.648C154.922 28.6 154.186 25.672 154.186 21.864C154.186 18.088 154.922 15.176 156.394 13.128C157.866 11.048 160.106 10.008 163.114 10.008C166.122 10.008 168.362 11.048 169.834 13.128C171.306 15.176 172.042 18.088 172.042 21.864C172.042 25.672 171.306 28.6 169.834 30.648Z" fill="black" fill-opacity="1"/>
</svg>
