<svg width="326" height="45" viewBox="0 0 326 45" fill="none" xmlns="http://www.w3.org/2000/svg">
<path fill-rule="evenodd" clip-rule="evenodd" d="M13.5996 4.32237C14.1854 2.76176 15.6776 1.72801 17.3445 1.72801L24.1605 1.72801C25.8274 1.72801 27.3196 2.76176 27.9054 4.32237L40.7694 38.5944C41.2305 39.8228 41.0598 41.1993 40.3125 42.2779C39.5653 43.3565 38.3366 44 37.0245 44H29.3445C27.6388 44 26.1207 42.9183 25.5637 41.3061L23.7584 36.08L17.4586 36.08L15.6533 41.3061C15.0963 42.9183 13.5782 44 11.8725 44H4.48049C3.16836 44 1.93966 43.3565 1.19244 42.2779C0.44522 41.1993 0.274508 39.8228 0.735606 38.5944L13.5996 4.32237ZM14.6085 32.08H26.6085L29.3445 40H37.0245L24.1605 5.72801L17.3445 5.72801L4.48049 40H11.8725L14.6085 32.08ZM16.4325 26.176H24.7365L20.5605 13.888L16.4325 26.176ZM75.4201 5.72801C75.4201 3.51888 77.211 1.72801 79.4201 1.72801L91.7561 1.72801C94.4953 1.72801 96.9871 1.98333 99.1146 2.60757C101.141 3.19321 103.027 4.07195 104.552 5.39325C106.011 6.6576 107.104 8.23104 107.7 10.0934C108.231 11.6595 108.476 13.3028 108.476 14.992C108.476 16.9293 108.056 18.7931 107.209 20.5339C107.024 20.9144 106.815 21.2753 106.585 21.6175C107.084 22.1835 107.524 22.8046 107.888 23.4848C108.446 24.4749 108.851 25.5385 109.067 26.667C109.279 27.628 109.388 28.602 109.388 29.584C109.388 31.4312 109.102 33.2264 108.506 34.9443C107.869 36.8777 106.768 38.55 105.265 39.9192C103.76 41.3191 101.912 42.3031 99.885 42.9787C97.7193 43.7007 95.2455 44 92.5721 44H79.4201C77.211 44 75.4201 42.2092 75.4201 40V5.72801ZM104.716 33.664C105.164 32.384 105.388 31.024 105.388 29.584C105.388 28.88 105.308 28.176 105.148 27.472C105.02 26.768 104.764 26.08 104.38 25.408C104.204 25.0723 103.988 24.7485 103.733 24.4368C103.477 24.1245 103.18 23.8242 102.844 23.536C102.204 22.928 101.372 22.352 100.348 21.808C101.844 21.03 102.893 20.098 103.494 19.0121C103.535 18.9368 103.575 18.8608 103.612 18.784C104.188 17.6 104.476 16.336 104.476 14.992C104.476 13.68 104.284 12.464 103.9 11.344C103.548 10.224 102.892 9.24801 101.932 8.41601C100.972 7.58401 99.6601 6.92801 97.9961 6.44801C96.3641 5.96801 94.2841 5.72801 91.7561 5.72801L79.4201 5.72801V40H92.5721C94.9721 40 96.9881 39.728 98.6201 39.184C100.252 38.64 101.564 37.904 102.556 36.976C103.58 36.048 104.3 34.944 104.716 33.664ZM96.1241 12.256C95.2281 11.648 93.6921 11.344 91.5161 11.344H86.3321V19.312H92.5721C94.4601 19.312 95.7561 18.96 96.4601 18.256C97.1641 17.552 97.5161 16.544 97.5161 15.232C97.5161 13.824 97.0521 12.832 96.1241 12.256ZM94.1401 30.208L94.1816 30.1962C94.29 30.1658 94.3734 30.1371 94.4359 30.1128C94.4575 29.9926 94.4761 29.8202 94.4761 29.584C94.4761 29.4146 94.4657 29.2855 94.4529 29.1909C94.1766 29.1296 93.7262 29.072 93.0521 29.072H90.3321V30.384H92.3321C93.3004 30.384 93.8651 30.2882 94.1401 30.208ZM86.3321 34.384V25.072H93.0521C95.0681 25.072 96.4761 25.456 97.2761 26.224C98.0761 26.992 98.4761 28.112 98.4761 29.584C98.4761 30.32 98.3801 30.976 98.1881 31.552C97.9961 32.128 97.6601 32.64 97.1801 33.088C96.7001 33.504 96.0601 33.824 95.2601 34.048C94.4921 34.272 93.5161 34.384 92.3321 34.384H86.3321ZM145.12 31.6661C145.115 31.6497 145.109 31.6334 145.104 31.6169C144.208 28.9301 143.794 25.9961 143.794 22.864C143.794 19.7319 144.208 16.7979 145.104 14.1111C145.109 14.0947 145.115 14.0783 145.12 14.0619C146.044 11.4073 147.386 9.0437 149.186 7.03951L149.216 7.00639C151.061 4.99729 153.278 3.46383 155.82 2.41452C158.391 1.35361 161.193 0.864014 164.162 0.864014C167.156 0.864014 169.976 1.35123 172.552 2.41452C175.103 3.46716 177.308 5.01369 179.106 7.05643C180.909 9.06971 182.236 11.4448 183.125 14.1111C184.021 16.7979 184.434 19.7319 184.434 22.864C184.434 25.9862 184.023 28.9116 183.133 31.5915C182.277 34.2674 180.963 36.652 179.153 38.672C177.356 40.7145 175.151 42.2609 172.6 43.3135C170.018 44.3791 167.181 44.864 164.162 44.864C161.168 44.864 158.349 44.3768 155.772 43.3135C153.222 42.261 151.009 40.7183 149.186 38.6885C147.386 36.6843 146.044 34.3207 145.12 31.6661ZM176.162 36.016C177.57 34.448 178.626 32.56 179.33 30.352C180.066 28.144 180.434 25.648 180.434 22.864C180.434 20.08 180.066 17.584 179.33 15.376C178.594 13.168 177.522 11.28 176.114 9.71201C174.738 8.14402 173.042 6.94402 171.026 6.11201C169.01 5.28001 166.722 4.86401 164.162 4.86401C161.634 4.86401 159.362 5.28001 157.346 6.11201C155.33 6.94402 153.602 8.14402 152.162 9.71201C150.754 11.28 149.666 13.168 148.898 15.376C148.162 17.584 147.794 20.08 147.794 22.864C147.794 25.648 148.162 28.144 148.898 30.352C149.666 32.56 150.754 34.448 152.162 36.016C153.57 37.584 155.282 38.784 157.298 39.616C159.314 40.448 161.602 40.864 164.162 40.864C166.754 40.864 169.058 40.448 171.074 39.616C173.09 38.784 174.786 37.584 176.162 36.016ZM157.394 14.128C155.922 16.176 155.186 19.088 155.186 22.864C155.186 26.672 155.922 29.6 157.394 31.648C158.866 33.696 161.106 34.72 164.114 34.72C167.122 34.72 169.362 33.696 170.834 31.648C172.306 29.6 173.042 26.672 173.042 22.864C173.042 19.088 172.306 16.176 170.834 14.128C169.362 12.048 167.122 11.008 164.114 11.008C161.106 11.008 158.866 12.048 157.394 14.128ZM167.586 16.4626L167.569 16.4387C166.989 15.6192 166.092 15.008 164.114 15.008C162.137 15.008 161.239 15.6192 160.659 16.4387L160.642 16.4626C159.848 17.5681 159.186 19.5315 159.186 22.864C159.186 26.2372 159.851 28.2126 160.642 29.3135C161.212 30.1065 162.112 30.72 164.114 30.72C166.116 30.72 167.016 30.1065 167.586 29.3135C168.377 28.2126 169.042 26.2372 169.042 22.864C169.042 19.5315 168.381 17.5681 167.586 16.4626ZM220.079 5.72801C220.079 3.51888 221.87 1.72801 224.079 1.72801L231.231 1.72801C233.441 1.72801 235.231 3.51888 235.231 5.72801V26.128C235.231 28.7096 235.711 29.8545 236.002 30.2553L236.003 30.2571C236.025 30.2907 236.302 30.72 237.903 30.72C238.731 30.72 239.204 30.5963 239.442 30.4977C239.64 30.4156 239.69 30.3484 239.721 30.3042C239.733 30.2878 239.745 30.2715 239.756 30.2553C240.048 29.8545 240.527 28.7096 240.527 26.128V5.72801C240.527 3.51888 242.318 1.72801 244.527 1.72801L251.679 1.72801C253.889 1.72801 255.679 3.51888 255.679 5.72801V26.128C255.679 29.0301 255.323 31.7184 254.501 34.104C253.699 36.4298 252.504 38.4991 250.849 40.1985C250.837 40.2112 250.824 40.2239 250.812 40.2364C249.146 41.9018 247.132 43.0795 244.86 43.8018C242.689 44.5332 240.337 44.864 237.855 44.864C235.331 44.864 232.941 44.5302 230.734 43.7948L230.713 43.7875C228.478 43.0284 226.499 41.836 224.851 40.1884C224.838 40.1759 224.826 40.1632 224.813 40.1505C223.132 38.4238 221.949 36.3065 221.184 33.9301C220.416 31.5458 220.079 28.872 220.079 25.984V5.72801ZM243.615 40C245.343 39.456 246.799 38.592 247.983 37.408C249.167 36.192 250.079 34.656 250.719 32.8C251.359 30.944 251.679 28.72 251.679 26.128V5.72801L244.527 5.72801V26.128C244.527 29.04 244.015 31.2 242.991 32.608C241.999 34.016 240.303 34.72 237.903 34.72C235.503 34.72 233.791 34.016 232.767 32.608C231.743 31.2 231.231 29.04 231.231 26.128V5.72801L224.079 5.72801V25.984C224.079 28.576 224.383 30.816 224.991 32.704C225.599 34.592 226.495 36.144 227.679 37.36C228.863 38.544 230.303 39.424 231.999 40C233.727 40.576 235.679 40.864 237.855 40.864C239.999 40.864 241.919 40.576 243.615 40ZM293.889 15.92C291.679 15.92 289.889 14.1292 289.889 11.92V5.72801C289.889 3.51888 291.679 1.72801 293.889 1.72801L321.729 1.72801C323.938 1.72801 325.729 3.51888 325.729 5.72801V11.92C325.729 14.1292 323.938 15.92 321.729 15.92H315.409V40C315.409 42.2092 313.618 44 311.409 44H304.209C301.999 44 300.209 42.2092 300.209 40V15.92H293.889ZM304.209 11.92V40H311.409V11.92L321.729 11.92V5.72801L293.889 5.72801V11.92H304.209Z" fill="black" fill-opacity="0.2"/>
</svg>
