<svg width="320" height="43" viewBox="0 0 320 43" fill="none" xmlns="http://www.w3.org/2000/svg">
<path fill-rule="evenodd" clip-rule="evenodd" d="M14.0758 3.63954C14.5245 2.48702 15.6346 1.72801 16.8714 1.72801H21.5274C22.7655 1.72801 23.8764 2.48864 24.3243 3.64294L37.6203 37.9149C37.9783 38.8379 37.858 39.878 37.2988 40.6948C36.7395 41.5117 35.8133 42 34.8234 42H30.0234C28.7746 42 27.6565 41.2265 27.2161 40.058L24.348 32.448H13.8107L10.9426 40.058C10.5022 41.2265 9.38408 42 8.13536 42H3.52736C2.53678 42 1.61005 41.511 1.05093 40.6933C0.491808 39.8756 0.372379 38.8346 0.731786 37.9115L14.0758 3.63954ZM11.7354 29.448H26.4234L30.0234 39H34.8234L21.5274 4.72801H16.8714L3.52736 39H8.13536L11.7354 29.448ZM13.0794 25.608L19.0314 9.72002L25.0794 25.608H13.0794ZM17.4068 22.608H20.7274L19.0538 18.2116L17.4068 22.608ZM74.5351 4.72801C74.5351 3.07116 75.8783 1.72801 77.5351 1.72801H88.9111C91.4995 1.72801 93.8134 1.97885 95.7619 2.57108C97.5873 3.09562 99.244 3.88181 100.563 5.04447C101.88 6.14715 102.845 7.5308 103.377 9.16785C103.837 10.5529 104.055 12.0078 104.055 13.512C104.055 15.561 103.57 17.4946 102.549 19.2358C102.265 19.7363 101.933 20.2 101.561 20.6297C102.27 21.2602 102.885 21.976 103.385 22.7817C104.045 23.7657 104.508 24.844 104.75 26.0034C104.993 27 105.111 28.0226 105.111 29.064C105.111 30.7876 104.837 32.4468 104.262 34.0163C103.677 35.6695 102.713 37.1079 101.422 38.3132C100.072 39.5736 98.3945 40.4699 96.5143 41.0838C94.5527 41.7244 92.2799 42 89.7751 42H77.5351C75.8783 42 74.5351 40.6569 74.5351 39V4.72801ZM101.439 33C101.887 31.784 102.111 30.472 102.111 29.064C102.111 28.232 102.015 27.432 101.823 26.664C101.663 25.864 101.343 25.112 100.863 24.408C100.457 23.7408 99.9193 23.1393 99.2502 22.6036C99.1812 22.5483 99.1109 22.4938 99.0391 22.44C98.3031 21.832 97.3591 21.304 96.2071 20.856C97.4169 20.2943 98.3787 19.6379 99.0926 18.8866C99.4362 18.525 99.7224 18.1415 99.9511 17.736C100.687 16.488 101.055 15.08 101.055 13.512C101.055 12.296 100.879 11.16 100.527 10.104C100.175 9.01602 99.5351 8.08801 98.6071 7.32002C97.7111 6.52001 96.4791 5.89601 94.9111 5.44801C93.3431 4.96801 91.3431 4.72801 88.9111 4.72801H77.5351V39H89.7751C92.0791 39 94.0151 38.744 95.5831 38.232C97.1511 37.72 98.4151 37.016 99.3751 36.12C100.335 35.224 101.023 34.184 101.439 33ZM94.9111 9.62401C93.7271 8.79202 91.6791 8.37602 88.7671 8.37602H81.8551V19.224H89.4871C92.0791 19.224 93.9351 18.76 95.0551 17.832C96.1751 16.872 96.7351 15.48 96.7351 13.656C96.7351 11.8 96.1271 10.456 94.9111 9.62401ZM93.1239 15.5358C93.4192 15.2739 93.7351 14.802 93.7351 13.656C93.7351 12.501 93.4029 12.2271 93.2171 12.0999L93.1863 12.0786C92.8093 11.8137 91.5793 11.376 88.7671 11.376H84.8551V16.224H89.4871C91.825 16.224 92.8066 15.7855 93.1239 15.5358ZM97.3111 31.8C97.5671 31.032 97.6951 30.168 97.6951 29.208C97.6951 27.192 97.1031 25.656 95.9191 24.6C94.7351 23.512 92.7511 22.968 89.9671 22.968H81.8551V35.352H89.6311C91.1991 35.352 92.4951 35.208 93.5191 34.92C94.5751 34.632 95.4071 34.232 96.0151 33.72C96.6551 33.176 97.0871 32.536 97.3111 31.8ZM94.078 31.4292C94.3174 31.2243 94.4001 31.0613 94.4411 30.9265C94.4488 30.9014 94.4567 30.8763 94.4651 30.8513C94.6022 30.44 94.6951 29.9039 94.6951 29.208C94.6951 27.7994 94.304 27.1793 93.9223 26.8389C93.9112 26.829 93.9002 26.819 93.8892 26.809C93.5431 26.4909 92.5043 25.968 89.9671 25.968H84.8551V32.352H89.6311C91.0414 32.352 92.0401 32.2196 92.7069 32.0321L92.7298 32.0257C93.5077 31.8136 93.9014 31.5763 94.078 31.4292ZM153.325 41.5037C153.306 41.4964 153.288 41.4889 153.269 41.4812C150.961 40.5193 148.943 39.1237 147.241 37.3063C147.226 37.2903 147.211 37.2741 147.197 37.2578C145.516 35.3816 144.256 33.1289 143.377 30.565C142.482 27.9525 142.063 25.0539 142.063 21.912C142.063 18.7701 142.482 15.8715 143.377 13.259L143.39 13.223C144.301 10.6725 145.573 8.43271 147.245 6.56627L147.268 6.54084C148.97 4.6842 150.994 3.2627 153.317 2.29478L153.334 2.2881C155.679 1.32701 158.197 0.864014 160.855 0.864014C163.528 0.864014 166.045 1.32113 168.365 2.28323C170.728 3.2175 172.77 4.62925 174.455 6.50642C176.144 8.35608 177.405 10.5974 178.283 13.1571C179.182 15.7441 179.599 18.6301 179.599 21.768C179.599 24.9064 179.182 27.8114 178.293 30.4448C177.446 33.0173 176.201 35.2788 174.514 37.1618C172.83 39.0411 170.791 40.4688 168.433 41.4366C166.102 42.4063 163.562 42.864 160.855 42.864C158.186 42.864 155.664 42.4241 153.325 41.5037ZM167.287 38.664C169.239 37.864 170.903 36.696 172.279 35.16C173.655 33.624 174.711 31.736 175.447 29.496C176.215 27.224 176.599 24.648 176.599 21.768C176.599 18.888 176.215 16.344 175.447 14.136C174.679 11.896 173.607 10.024 172.231 8.52001C170.855 6.98401 169.191 5.83202 167.239 5.06402C165.319 4.26401 163.191 3.86401 160.855 3.86401C158.551 3.86401 156.423 4.26401 154.471 5.06402C152.551 5.86401 150.887 7.03201 149.479 8.56802C148.103 10.104 147.015 11.992 146.215 14.232C145.447 16.472 145.063 19.032 145.063 21.912C145.063 24.792 145.447 27.352 146.215 29.592C146.983 31.832 148.055 33.72 149.431 35.256C150.839 36.76 152.503 37.912 154.423 38.712C156.375 39.48 158.519 39.864 160.855 39.864C163.223 39.864 165.367 39.464 167.287 38.664ZM169.111 11.592C168.183 10.344 167.031 9.38402 165.655 8.71201C164.279 8.04002 162.679 7.70401 160.855 7.70401C158.999 7.70401 157.367 8.04002 155.959 8.71201C154.583 9.38402 153.415 10.344 152.455 11.592C151.527 12.84 150.823 14.344 150.343 16.104C149.895 17.832 149.671 19.752 149.671 21.864C149.671 24.008 149.895 25.96 150.343 27.72C150.823 29.448 151.527 30.936 152.455 32.184C153.383 33.4 154.535 34.344 155.911 35.016C157.319 35.688 158.967 36.024 160.855 36.024C162.679 36.024 164.279 35.688 165.655 35.016C167.063 34.344 168.231 33.4 169.159 32.184C170.087 30.936 170.791 29.448 171.271 27.72C171.751 25.96 171.991 24.008 171.991 21.864C171.991 19.752 171.751 17.832 171.271 16.104C170.791 14.344 170.071 12.84 169.111 11.592ZM168.379 26.9239C168.776 25.4631 168.991 23.7837 168.991 21.864C168.991 19.9767 168.777 18.332 168.381 16.9069L168.377 16.8934C167.984 15.4512 167.42 14.3144 166.733 13.4211C166.723 13.4082 166.714 13.3952 166.704 13.3821C166.057 12.5126 165.277 11.866 164.339 11.4077C163.444 10.9707 162.309 10.704 160.855 10.704C159.369 10.704 158.197 10.9709 157.264 11.4137C156.327 11.8731 155.528 12.5237 154.848 13.402C154.188 14.2959 153.637 15.4345 153.242 16.8757C152.872 18.3135 152.671 19.9694 152.671 21.864C152.671 23.7882 152.871 25.4764 153.243 26.9483C153.636 28.3517 154.185 29.4783 154.851 30.3789C155.491 31.2124 156.269 31.85 157.215 32.3141C158.142 32.754 159.328 33.024 160.855 33.024C162.309 33.024 163.444 32.7574 164.339 32.3203L164.363 32.3086C165.345 31.8401 166.132 31.2016 166.763 30.3788C167.433 29.473 167.985 28.3387 168.379 26.9239ZM217.982 4.72801C217.982 3.07116 219.326 1.72801 220.982 1.72801H225.398C227.055 1.72801 228.398 3.07116 228.398 4.72801V25.416C228.398 28.6742 229.013 30.5638 229.761 31.5766C230.342 32.3277 231.483 33.024 233.99 33.024C236.557 33.024 237.629 32.315 238.133 31.6295C238.887 30.5667 239.486 28.6445 239.486 25.416V4.72801C239.486 3.07116 240.83 1.72801 242.486 1.72801H246.902C248.559 1.72801 249.902 3.07116 249.902 4.72801V25.416C249.902 28.1924 249.575 30.7175 248.841 32.9264C248.151 35.0654 247.102 36.9521 245.641 38.502C244.189 40.0762 242.392 41.2004 240.323 41.8916C238.361 42.5572 236.222 42.864 233.942 42.864C229.244 42.864 225.187 41.537 222.206 38.5145L222.191 38.4992C219.158 35.3788 217.982 30.7059 217.982 25.224V4.72801ZM243.446 36.456C244.566 35.272 245.414 33.784 245.99 31.992C246.598 30.168 246.902 27.976 246.902 25.416V4.72801H242.486V25.416C242.486 28.936 241.846 31.592 240.566 33.384C239.286 35.144 237.094 36.024 233.99 36.024C230.918 36.024 228.71 35.144 227.366 33.384C226.054 31.624 225.398 28.968 225.398 25.416V4.72801H220.982V25.224C220.982 30.376 222.102 34.104 224.342 36.408C226.614 38.712 229.814 39.864 233.942 39.864C235.958 39.864 237.766 39.592 239.366 39.048C240.998 38.504 242.358 37.64 243.446 36.456ZM289.557 11.664C287.9 11.664 286.557 10.3209 286.557 8.66401V4.72801C286.557 3.07116 287.9 1.72801 289.557 1.72801H316.677C318.334 1.72801 319.677 3.07116 319.677 4.72801V8.66401C319.677 10.3209 318.334 11.664 316.677 11.664H308.349V39C308.349 40.6569 307.006 42 305.349 42H300.885C299.228 42 297.885 40.6569 297.885 39V11.664H289.557ZM300.885 8.66401V39H305.349V8.66401H316.677V4.72801H289.557V8.66401H300.885Z" fill="black" opacity="1"/>
</svg>
