<svg width="260" height="43" viewBox="0 0 260 43" fill="none" xmlns="http://www.w3.org/2000/svg">
<path fill-rule="evenodd" clip-rule="evenodd" d="M0.503906 4.72801C0.503906 3.07116 1.84705 1.72801 3.50391 1.72801L10.6559 1.72801C12.3128 1.72801 13.6559 3.07116 13.6559 4.72801L13.6559 14.976L21.2399 14.976L21.2399 4.72801C21.2399 3.07116 22.5831 1.72801 24.2399 1.72801L31.3919 1.72801C33.0488 1.72801 34.3919 3.07116 34.3919 4.72801L34.3919 39C34.3919 40.6569 33.0488 42 31.3919 42H24.2399C22.5831 42 21.2399 40.6569 21.2399 39L21.2399 27.6H13.6559L13.6559 39C13.6559 40.6569 12.3128 42 10.6559 42H3.50391C1.84705 42 0.503906 40.6569 0.503906 39L0.503906 4.72801ZM10.6559 24.6L24.2399 24.6L24.2399 39H31.3919L31.3919 4.72801L24.2399 4.72801L24.2399 17.976L10.6559 17.976L10.6559 4.72801L3.50391 4.72801L3.50391 39H10.6559L10.6559 24.6ZM73.9454 30.3376L73.9329 30.3007C73.0771 27.7336 72.6749 24.9091 72.6749 21.864C72.6749 18.8189 73.0771 15.9945 73.9329 13.4273L73.9454 13.3905C74.8299 10.8475 76.109 8.60278 77.8108 6.70764L77.8333 6.6828C79.5771 4.78397 81.6715 3.33387 84.0824 2.33889C86.5145 1.33521 89.184 0.864014 92.0429 0.864014C94.9284 0.864014 97.6151 1.33343 100.051 2.33889C102.468 3.33636 104.546 4.79626 106.238 6.72034C107.943 8.62233 109.206 10.8757 110.057 13.4273C110.913 15.9945 111.315 18.8189 111.315 21.864C111.315 24.9017 110.915 27.7199 110.063 30.282C109.245 32.8404 107.995 35.1006 106.287 37.0075C104.595 38.9317 102.516 40.3916 100.099 41.3891C97.6588 42.3963 94.955 42.864 92.0429 42.864C89.1575 42.864 86.4708 42.3946 84.0344 41.3891C81.6178 40.3918 79.5298 38.9347 77.8108 37.0204C76.109 35.1252 74.8299 32.8805 73.9454 30.3376ZM104.043 35.016C105.451 33.448 106.507 31.56 107.211 29.352C107.947 27.144 108.315 24.648 108.315 21.864C108.315 19.08 107.947 16.584 107.211 14.376C106.475 12.168 105.403 10.28 103.995 8.71201C102.619 7.14402 100.923 5.94402 98.9069 5.11201C96.8909 4.28001 94.6029 3.86401 92.0429 3.86401C89.5149 3.86401 87.2429 4.28001 85.2269 5.11201C83.2109 5.94402 81.4829 7.14402 80.0429 8.71201C78.6349 10.28 77.5469 12.168 76.7789 14.376C76.0429 16.584 75.6749 19.08 75.6749 21.864C75.6749 24.648 76.0429 27.144 76.7789 29.352C77.5469 31.56 78.6349 33.448 80.0429 35.016C81.4509 36.584 83.1629 37.784 85.1789 38.616C87.1949 39.448 89.4829 39.864 92.0429 39.864C94.6349 39.864 96.9389 39.448 98.9549 38.616C100.971 37.784 102.667 36.584 104.043 35.016ZM96.2789 14.8789L96.2661 14.861C95.4632 13.7264 94.2301 13.008 91.9949 13.008C89.7598 13.008 88.5267 13.7264 87.7237 14.861L87.711 14.8789C86.747 16.2201 86.0669 18.4206 86.0669 21.864C86.0669 25.3459 86.7495 27.5595 87.711 28.8971C88.5064 30.0039 89.7415 30.72 91.9949 30.72C94.2484 30.72 95.4834 30.0039 96.2789 28.8971C97.2403 27.5595 97.9229 25.3459 97.9229 21.864C97.9229 18.4206 97.2428 16.2201 96.2789 14.8789ZM149.632 4.72801C149.632 3.07116 150.975 1.72801 152.632 1.72801L161.224 1.72801C162.515 1.72801 163.661 2.55352 164.07 3.77773L169.807 20.959L175.715 3.75382C176.131 2.54188 177.271 1.72801 178.552 1.72801L186.904 1.72801C188.561 1.72801 189.904 3.07116 189.904 4.72801V39C189.904 40.6569 188.561 42 186.904 42H180.328C178.671 42 177.328 40.6569 177.328 39V34.1729L175.342 39.9719C174.927 41.185 173.786 42 172.504 42H166.936C165.657 42 164.518 41.1885 164.1 39.9791L162.064 34.0814V39C162.064 40.6569 160.721 42 159.064 42L152.632 42C150.975 42 149.632 40.6569 149.632 39V4.72801ZM159.064 16.2L166.936 39H172.504L180.328 16.152V39H186.904V4.72801L178.552 4.72801L169.768 30.312L161.224 4.72801L152.632 4.72801V39L159.064 39V16.2ZM229.329 4.72801C229.329 3.07116 230.672 1.72801 232.329 1.72801L255.705 1.72801C257.362 1.72801 258.705 3.07116 258.705 4.72801V10.824C258.705 12.4809 257.362 13.824 255.705 13.824L242.481 13.824V15.312L254.745 15.312C256.402 15.312 257.745 16.6552 257.745 18.312V24.456C257.745 26.1129 256.402 27.456 254.745 27.456L242.481 27.456V29.904L256.713 29.904C257.57 29.904 258.386 30.2705 258.955 30.911C259.525 31.5515 259.793 32.4049 259.692 33.2559L258.972 39.3519C258.794 40.8621 257.514 42 255.993 42L232.329 42C230.672 42 229.329 40.6569 229.329 39V4.72801ZM239.481 32.904V24.456L254.745 24.456V18.312L239.481 18.312V10.824L255.705 10.824V4.72801L232.329 4.72801V39L255.993 39L256.713 32.904L239.481 32.904ZM98.7149 30.648C97.2429 32.696 95.0029 33.72 91.9949 33.72C88.9869 33.72 86.7469 32.696 85.2749 30.648C83.8029 28.6 83.0669 25.672 83.0669 21.864C83.0669 18.088 83.8029 15.176 85.2749 13.128C86.7469 11.048 88.9869 10.008 91.9949 10.008C95.0029 10.008 97.2429 11.048 98.7149 13.128C100.187 15.176 100.923 18.088 100.923 21.864C100.923 25.672 100.187 28.6 98.7149 30.648Z" fill="black"/>
</svg>
