<svg width="246" height="43" viewBox="0 0 246 43" fill="none" xmlns="http://www.w3.org/2000/svg">
<path fill-rule="evenodd" clip-rule="evenodd" d="M0.503906 4.72754C0.503906 2.5184 2.29477 0.727539 4.50391 0.727539L10.9359 0.727539C12.3118 0.727539 13.5911 1.43467 14.323 2.59974L21.0479 13.3047L21.0479 4.72754C21.0479 2.5184 22.8388 0.727539 25.0479 0.727539L32.0079 0.727539C34.217 0.727539 36.0079 2.5184 36.0079 4.72754L36.0079 38.9995C36.0079 41.2087 34.217 42.9995 32.0079 42.9995H25.6239C24.2557 42.9995 22.9824 42.3002 22.2484 41.1456L15.4639 30.4745V38.9995C15.4639 41.2087 13.673 42.9995 11.4639 42.9995H4.50391C2.29477 42.9995 0.503906 41.2087 0.503906 38.9995L0.503906 4.72754ZM11.4639 16.7275L25.6239 38.9995H32.0079L32.0079 4.72754L25.0479 4.72754L25.0479 27.1915L10.9359 4.72754L4.50391 4.72754L4.50391 38.9995H11.4639L11.4639 16.7275ZM73.4039 4.72754C73.4039 2.5184 75.1948 0.727539 77.4039 0.727539L100.78 0.727539C102.989 0.727539 104.78 2.5184 104.78 4.72754V10.8235C104.78 12.7462 103.423 14.352 101.615 14.7362C102.923 15.394 103.82 16.748 103.82 18.3115V24.4555C103.82 26.6647 102.029 28.4555 99.8199 28.4555H88.5559V28.9035L101.788 28.9035C102.931 28.9035 104.019 29.3922 104.778 30.2462C105.537 31.1002 105.894 32.238 105.76 33.3727L105.04 39.4687C104.802 41.4824 103.096 42.9995 101.068 42.9995H77.4039C75.1948 42.9995 73.4039 41.2087 73.4039 38.9995V4.72754ZM84.5559 32.9035V24.4555H99.8199V18.3115H84.5559V10.8235L100.78 10.8235V4.72754L77.4039 4.72754V38.9995H101.068L101.788 32.9035H84.5559ZM166.356 38.9995L158.052 26.5195L150.084 38.9995H142.26L154.212 20.9515L143.076 4.72754L151.236 4.72754L158.292 15.6715L165.492 4.72754L173.172 4.72754L162.228 21.1435L174.516 38.9995H166.356ZM167.059 21.1079L177.811 36.7319C178.653 37.9559 178.748 39.5458 178.056 40.8609C177.365 42.176 176.002 42.9995 174.516 42.9995H166.356C165.017 42.9995 163.767 42.3299 163.026 41.2154L158.121 33.8443L153.455 41.1521C152.72 42.303 151.449 42.9995 150.084 42.9995H142.26C140.787 42.9995 139.433 42.19 138.736 40.8924C138.039 39.5948 138.111 38.0191 138.925 36.791L149.388 20.9916L139.778 6.99117C138.938 5.76692 138.845 4.17792 139.536 2.86401C140.228 1.5501 141.591 0.727539 143.076 0.727539L151.236 0.727539C152.595 0.727539 153.861 1.41771 154.598 2.56004L158.326 8.34227L162.15 2.52907C162.89 1.40455 164.146 0.727539 165.492 0.727539L173.172 0.727539C174.647 0.727539 176.002 1.53948 176.698 2.84011C177.395 4.14074 177.318 5.71891 176.5 6.94634L167.059 21.1079ZM214.144 14.9195C211.935 14.9195 210.144 13.1287 210.144 10.9195V4.72754C210.144 2.5184 211.935 0.727539 214.144 0.727539L241.984 0.727539C244.193 0.727539 245.984 2.5184 245.984 4.72754V10.9195C245.984 13.1287 244.193 14.9195 241.984 14.9195L235.664 14.9195V38.9995C235.664 41.2087 233.873 42.9995 231.664 42.9995H224.464C222.255 42.9995 220.464 41.2087 220.464 38.9995V14.9195L214.144 14.9195ZM224.464 10.9195V38.9995H231.664V10.9195L241.984 10.9195V4.72754L214.144 4.72754V10.9195L224.464 10.9195Z" fill="black"/>
</svg>
