<svg width="244" height="41" viewBox="0 0 244 41" fill="none" xmlns="http://www.w3.org/2000/svg">
<path fill-rule="evenodd" clip-rule="evenodd" d="M0.503906 3.72754C0.503906 2.07068 1.84705 0.727539 3.50391 0.727539L9.93591 0.727539C10.9678 0.727539 11.9273 1.25789 12.4762 2.13169L21.0479 15.7764L21.0479 3.72754C21.0479 2.07068 22.3911 0.727539 24.0479 0.727539L31.0079 0.727539C32.6648 0.727539 34.0079 2.07068 34.0079 3.72754L34.0079 37.9995C34.0079 39.6564 32.6648 40.9995 31.0079 40.9995H24.6239C23.5978 40.9995 22.6428 40.4751 22.0922 39.6091L13.4639 26.0378L13.4639 37.9995C13.4639 39.6564 12.1208 40.9995 10.4639 40.9995H3.50391C1.84705 40.9995 0.503906 39.6564 0.503906 37.9995L0.503906 3.72754ZM10.4639 15.7275L24.6239 37.9995H31.0079L31.0079 3.72754L24.0479 3.72754L24.0479 26.1915L9.93591 3.72754L3.50391 3.72754L3.50391 37.9995H10.4639L10.4639 15.7275ZM73.4039 3.72754C73.4039 2.07068 74.7471 0.727539 76.4039 0.727539L99.7799 0.727539C101.437 0.727539 102.78 2.07068 102.78 3.72754V9.82354C102.78 11.4804 101.437 12.8235 99.7799 12.8235L86.5559 12.8235V14.3115L98.8199 14.3115C100.477 14.3115 101.82 15.6547 101.82 17.3115V23.4555C101.82 25.1124 100.477 26.4555 98.8199 26.4555H86.5559V28.9035L100.788 28.9035C101.645 28.9035 102.461 29.27 103.03 29.9105C103.599 30.551 103.868 31.4044 103.767 32.2554L103.047 38.3514C102.869 39.8617 101.589 40.9995 100.068 40.9995H76.4039C74.7471 40.9995 73.4039 39.6564 73.4039 37.9995V3.72754ZM83.5559 31.9035V23.4555H98.8199V17.3115H83.5559V9.82354L99.7799 9.82354V3.72754L76.4039 3.72754V37.9995H100.068L100.788 31.9035L83.5559 31.9035ZM153.212 19.9515L142.076 3.72754L150.236 3.72754L157.292 14.6715L164.492 3.72754L172.172 3.72754L161.228 20.1435L173.516 37.9995H165.356L157.052 25.5195L149.084 37.9995H141.26L153.212 19.9515ZM157.104 31.0131L151.612 39.6139C151.061 40.4771 150.108 40.9995 149.084 40.9995H141.26C140.155 40.9995 139.14 40.3924 138.617 39.4192C138.094 38.446 138.149 37.2642 138.759 36.3431L149.594 19.9816L139.602 5.42526C138.972 4.50707 138.902 3.31532 139.421 2.32989C139.94 1.34446 140.962 0.727539 142.076 0.727539L150.236 0.727539C151.255 0.727539 152.205 1.24517 152.757 2.10191L157.317 9.17459L161.986 2.07869C162.54 1.2353 163.482 0.727539 164.492 0.727539L172.172 0.727539C173.278 0.727539 174.295 1.33649 174.817 2.31197C175.339 3.28744 175.282 4.47107 174.668 5.39164L164.851 20.1168L175.987 36.2988C176.619 37.2168 176.69 38.4093 176.171 39.3956C175.653 40.3819 174.63 40.9995 173.516 40.9995H165.356C164.352 40.9995 163.414 40.4973 162.858 39.6614L157.104 31.0131ZM213.144 12.9195C211.487 12.9195 210.144 11.5764 210.144 9.91954V3.72754C210.144 2.07068 211.487 0.727539 213.144 0.727539L240.984 0.727539C242.641 0.727539 243.984 2.07068 243.984 3.72754V9.91954C243.984 11.5764 242.641 12.9195 240.984 12.9195L233.664 12.9195V37.9995C233.664 39.6564 232.321 40.9995 230.664 40.9995H223.464C221.807 40.9995 220.464 39.6564 220.464 37.9995V12.9195L213.144 12.9195ZM223.464 9.91954V37.9995H230.664V9.91954L240.984 9.91954V3.72754L213.144 3.72754V9.91954L223.464 9.91954Z" fill="black"/>
</svg>
