<svg width="239" height="43" viewBox="0 0 239 43" fill="none" xmlns="http://www.w3.org/2000/svg">
<path fill-rule="evenodd" clip-rule="evenodd" d="M0.503906 4.72803C0.503906 2.51889 2.29477 0.728027 4.50391 0.728027H16.7439C19.6187 0.728027 22.2618 1.05376 24.5305 1.85925C26.6402 2.5677 28.5612 3.61028 30.086 5.11752C31.5779 6.53052 32.6494 8.24594 33.2376 10.218C33.7774 11.8987 34.0399 13.643 34.0399 15.432C34.0399 17.2959 33.7833 19.1137 33.2567 20.8698C32.6854 22.8899 31.6401 24.6739 30.1769 26.1832C28.6645 27.7444 26.7529 28.8479 24.6329 29.6094C22.3828 30.4293 19.769 30.76 16.9359 30.76H15.5599V39C15.5599 41.2092 13.769 43 11.5599 43H4.50391C2.29477 43 0.503906 41.2092 0.503906 39V4.72803ZM11.5599 26.76H16.9359C19.4959 26.76 21.6079 26.456 23.2719 25.848C24.9679 25.24 26.3119 24.424 27.3039 23.4C28.3279 22.344 29.0319 21.128 29.4159 19.752C29.8319 18.376 30.0399 16.936 30.0399 15.432C30.0399 14.024 29.8319 12.68 29.4159 11.4C29.0319 10.088 28.3279 8.95203 27.3039 7.99203C26.3119 7.00003 24.9519 6.21603 23.2239 5.64003C21.5279 5.03203 19.3679 4.72803 16.7439 4.72803H4.50391V39H11.5599V26.76ZM19.7199 10.968C18.9199 10.744 17.8959 10.632 16.6479 10.632H11.5599V20.808H16.6959C17.9439 20.808 18.9679 20.68 19.7679 20.424C20.5999 20.168 21.2559 19.816 21.7359 19.368C22.2159 18.92 22.5359 18.376 22.6959 17.736C22.8879 17.064 22.9839 16.344 22.9839 15.576C22.9839 14.776 22.8879 14.072 22.6959 13.464C22.5039 12.856 22.1679 12.344 21.6879 11.928C21.2079 11.512 20.5519 11.192 19.7199 10.968ZM15.5599 16.808H16.6959C17.7108 16.808 18.2843 16.699 18.5488 16.6143L18.5916 16.6009C18.7209 16.5611 18.8174 16.5242 18.8869 16.494C18.9463 16.2402 18.9839 15.9381 18.9839 15.576C18.9839 15.2855 18.9628 15.0677 18.9369 14.9106C18.8708 14.8865 18.7861 14.859 18.68 14.8305L18.6414 14.8199C18.321 14.7302 17.6946 14.632 16.6479 14.632H15.5599V16.808ZM69.607 4.72803C69.607 2.51889 71.3979 0.728027 73.607 0.728027H80.759C82.9682 0.728027 84.759 2.51889 84.759 4.72803V28.856H96.983C98.1304 28.856 99.2224 29.3487 99.9817 30.2088C100.741 31.0689 101.094 32.2137 100.952 33.3522L100.184 39.4962C99.9339 41.4979 98.2323 43 96.215 43H73.607C71.3979 43 69.607 41.2092 69.607 39V4.72803ZM80.759 32.856V4.72803H73.607V39H96.215L96.983 32.856H80.759ZM147.071 3.32238C147.657 1.76177 149.149 0.728027 150.816 0.728027H157.632C159.299 0.728027 160.791 1.76177 161.377 3.32238L174.241 37.5944C174.702 38.8228 174.531 40.1993 173.784 41.2779C173.037 42.3565 171.808 43 170.496 43H162.816C161.11 43 159.592 41.9184 159.035 40.3061L157.23 35.08H150.93L149.125 40.3061C148.568 41.9184 147.05 43 145.344 43H137.952C136.64 43 135.411 42.3565 134.664 41.2779C133.917 40.1993 133.746 38.8228 134.207 37.5944L147.071 3.32238ZM148.08 31.08H160.08L162.816 39H170.496L157.632 4.72803H150.816L137.952 39H145.344L148.08 31.08ZM149.904 25.176H158.208L154.032 12.888L149.904 25.176ZM223.11 25.032V39H215.958V25.032L204.102 4.72803H212.07L219.462 18.6L227.094 4.72803H234.678L223.11 25.032ZM219.518 10.1997L215.6 2.84694C214.905 1.54278 213.548 0.728027 212.07 0.728027H204.102C202.669 0.728027 201.346 1.49414 200.633 2.73655C199.92 3.97895 199.925 5.50792 200.648 6.74503L211.958 26.1144V39C211.958 41.2092 213.749 43 215.958 43H223.11C225.319 43 227.11 41.2092 227.11 39V26.0916L238.153 6.70816C238.859 5.47004 238.852 3.95013 238.136 2.71812C237.42 1.4861 236.103 0.728027 234.678 0.728027H227.094C225.635 0.728027 224.292 1.52195 223.589 2.79989L219.518 10.1997Z" fill="black" fill-opacity="0.2"/>
</svg>
