<svg width="243" height="42" viewBox="0 0 243 42" fill="none" xmlns="http://www.w3.org/2000/svg">
<path fill-rule="evenodd" clip-rule="evenodd" d="M0 3.12872C0 1.40078 1.41061 0 3.15068 0H15.1989C18.0449 0 20.5937 0.29977 22.7398 1.00867C24.795 1.67692 26.6271 2.65141 28.0443 4.0512C29.4186 5.3764 30.3945 6.96737 30.9211 8.78933C31.419 10.3719 31.658 12.0281 31.658 13.7414C31.658 15.5247 31.418 17.2567 30.9262 18.9253L27.9024 18.0465C28.3057 16.6782 28.5073 15.2431 28.5073 13.7414C28.5073 12.3063 28.3057 10.9547 27.9024 9.68653C27.5327 8.38498 26.8438 7.2503 25.8356 6.28248C24.861 5.31466 23.4999 4.54708 21.7523 3.97974C20.0383 3.4124 17.8538 3.12872 15.1989 3.12872H3.15068V38.8713H7.73806V25.0048H15.1989C17.8202 25.0048 19.9879 24.7044 21.7019 24.1037C23.4158 23.503 24.7769 22.6853 25.7851 21.6508C26.7934 20.6162 27.4991 19.4148 27.9024 18.0465L30.9262 18.9253C30.3779 20.7857 29.4092 22.431 28.0492 23.8266C26.6267 25.2863 24.8106 26.332 22.7505 27.0541C20.5864 27.8125 18.0333 28.1335 15.1989 28.1335H10.8887V38.8713C10.8887 40.5992 9.47814 42 7.73806 42H3.15068C1.41061 42 0 40.5992 0 38.8713V3.12872ZM23.4663 16.8951C23.231 17.7628 22.7941 18.5137 22.1556 19.1478C21.517 19.7819 20.6264 20.2658 19.4838 20.5995C18.3411 20.9333 16.896 21.1001 15.1485 21.1001H7.73806V7.03337H15.0981C16.812 7.03337 18.2235 7.18355 19.3326 7.48391C20.4752 7.7509 21.3826 8.16806 22.0547 8.7354C22.7269 9.30274 23.1974 10.0203 23.4663 10.888C23.7351 11.7557 23.8695 12.7569 23.8695 13.8915C23.8695 14.9929 23.7351 15.994 23.4663 16.8951ZM10.8887 10.1621H15.0981C16.6548 10.1621 17.762 10.3015 18.5036 10.5024C18.5392 10.512 18.575 10.5211 18.6109 10.5295C19.4214 10.7188 19.8273 10.9615 20.0142 11.1193C20.2117 11.286 20.3558 11.4884 20.4549 11.8081C20.6117 12.3141 20.7189 12.9944 20.7189 13.8915C20.7189 14.7422 20.6149 15.4383 20.4454 16.0063C20.4379 16.0313 20.4307 16.0565 20.4239 16.0817C20.3318 16.4215 20.1752 16.6897 19.9277 16.9355C19.762 17.1 19.3875 17.3664 18.5948 17.5979C17.8413 17.818 16.7218 17.9714 15.1485 17.9714H10.8887V10.1621ZM71.8847 3.12872C71.8847 1.40078 73.2953 0 75.0354 0H79.6732C81.4132 0 82.8238 1.40078 82.8238 3.12872V31.6377H98.3252C99.2535 31.6377 100.135 32.0442 100.733 32.7488C101.332 33.4534 101.587 34.3842 101.431 35.2929L100.725 39.3978C100.467 40.9009 99.1549 42 97.6194 42H75.0354C73.2953 42 71.8847 40.5992 71.8847 38.8713V3.12872ZM79.6732 34.7664V3.12872H75.0354V38.8713H97.6194L98.3252 34.7664H79.6732ZM152.306 1.99355C152.777 0.791577 153.943 0 155.242 0H160.132C161.432 0 162.599 0.79326 163.069 1.9971L177.033 37.7396C177.409 38.7022 177.283 39.7869 176.695 40.6388C176.108 41.4907 175.135 42 174.095 42H169.054C167.743 42 166.569 41.1933 166.106 39.9747L163.094 32.0381H152.027L149.015 39.9747C148.553 41.1933 147.378 42 146.067 42H141.228C140.187 42 139.214 41.49 138.627 40.6372C138.04 39.7845 137.914 38.6988 138.292 37.7361L152.306 1.99355ZM149.848 28.9094H165.274L169.054 38.8713H174.095L160.132 3.12872H155.242L141.228 38.8713H146.067L149.848 28.9094ZM151.259 24.9046L157.51 8.33492L163.862 24.9046H151.259ZM155.804 21.7759H159.291L157.534 17.1909L155.804 21.7759ZM227.549 23.7032V38.8713H222.861V23.7032L210.309 3.12872H215.652L225.18 19.6484L234.959 3.12872H239.849L227.549 23.7032ZM225.215 13.4147L218.386 1.57379C217.825 0.600448 216.782 0 215.652 0H210.309C209.171 0 208.122 0.608882 207.564 1.59304C207.005 2.5772 207.024 3.7838 207.614 4.74992L219.71 24.577V38.8713C219.71 40.5992 221.121 42 222.861 42H227.549C229.289 42 230.7 40.5992 230.7 38.8713V24.562L242.559 4.72591C243.137 3.7589 243.148 2.55818 242.587 1.58086C242.027 0.603543 240.982 0 239.849 0H234.959C233.843 0 232.809 0.587075 232.243 1.54311L225.215 13.4147Z" fill="black" opacity="1"/>
</svg>
