<svg width="237" height="41" viewBox="0 0 237 41" fill="none" xmlns="http://www.w3.org/2000/svg">
<path fill-rule="evenodd" clip-rule="evenodd" d="M0.503906 3.72803C0.503906 2.07117 1.84705 0.728027 3.50391 0.728027L15.7439 0.728027C18.5555 0.728027 21.078 1.04819 23.204 1.80448C25.217 2.47944 26.9983 3.45707 28.3906 4.83623C29.7653 6.13585 30.7451 7.70661 31.2823 9.51378C31.7911 11.0943 32.0399 12.7384 32.0399 14.432C32.0399 16.2058 31.7955 17.9291 31.2966 19.5902C30.772 21.4498 29.8115 23.0922 28.4576 24.4885C27.0755 25.9148 25.3063 26.946 23.2932 27.6689C21.1894 28.436 18.7008 28.76 15.9359 28.76H13.5599V38C13.5599 39.6569 12.2168 41 10.5599 41H3.50391C1.84705 41 0.503906 39.6569 0.503906 38L0.503906 3.72803ZM10.5599 25.76L15.9359 25.76C18.4959 25.76 20.6079 25.456 22.2719 24.848C23.9679 24.24 25.3119 23.424 26.3039 22.4C27.3279 21.344 28.0319 20.128 28.4159 18.752C28.8319 17.376 29.0399 15.936 29.0399 14.432C29.0399 13.024 28.8319 11.68 28.4159 10.4C28.0319 9.08803 27.3279 7.95203 26.3039 6.99203C25.3119 6.00003 23.9519 5.21603 22.2239 4.64003C20.5279 4.03203 18.3679 3.72803 15.7439 3.72803L3.50391 3.72803L3.50391 38H10.5599L10.5599 25.76ZM17.8536 16.5668L17.8857 16.5567C18.4186 16.3927 18.631 16.2289 18.689 16.1749C18.7436 16.1238 18.7652 16.0897 18.7855 16.0084C18.7936 15.9761 18.8022 15.9439 18.8113 15.9119C18.9196 15.5329 18.9839 15.0926 18.9839 14.576C18.9839 14.0081 18.9149 13.6198 18.8352 13.3674C18.8094 13.2859 18.7825 13.2466 18.7231 13.1951C18.6849 13.162 18.4824 13.0109 17.94 12.8649L17.911 12.8569C17.4707 12.7336 16.7449 12.632 15.6479 12.632H13.5599V16.808H15.6959C16.7691 16.808 17.4552 16.6942 17.8536 16.5668ZM10.5599 19.808L10.5599 9.63203H15.6479C16.8959 9.63203 17.9199 9.74403 18.7199 9.96803C19.5519 10.192 20.2079 10.512 20.6879 10.928C21.1679 11.344 21.5039 11.856 21.6959 12.464C21.8879 13.072 21.9839 13.776 21.9839 14.576C21.9839 15.344 21.8879 16.064 21.6959 16.736C21.5359 17.376 21.2159 17.92 20.7359 18.368C20.2559 18.816 19.5999 19.168 18.7679 19.424C17.9679 19.68 16.9439 19.808 15.6959 19.808L10.5599 19.808ZM69.607 3.72803C69.607 2.07117 70.9502 0.728027 72.607 0.728027L79.759 0.728027C81.4159 0.728027 82.759 2.07117 82.759 3.72803V28.856H95.983C96.8435 28.856 97.6626 29.2255 98.2321 29.8706C98.8015 30.5157 99.0666 31.3743 98.9599 32.2281L98.1919 38.3721C98.0042 39.8734 96.728 41 95.215 41H72.607C70.9502 41 69.607 39.6569 69.607 38V3.72803ZM79.759 31.856V3.72803L72.607 3.72803V38H95.215L95.983 31.856H79.759ZM147.007 2.67379C147.446 1.50333 148.566 0.728027 149.816 0.728027L156.632 0.728027C157.882 0.728027 159.001 1.50333 159.44 2.67379L172.304 36.9458C172.65 37.8671 172.522 38.8995 171.962 39.7084C171.401 40.5174 170.48 41 169.496 41H161.816C160.536 41 159.398 40.1888 158.98 38.9796L156.942 33.08L149.217 33.08L147.179 38.9796C146.762 40.1888 145.623 41 144.344 41H136.952C135.968 41 135.046 40.5174 134.486 39.7084C133.925 38.8995 133.797 37.8671 134.143 36.9458L147.007 2.67379ZM147.08 30.08H159.08L161.816 38H169.496L156.632 3.72803L149.816 3.72803L136.952 38H144.344L147.08 30.08ZM153.032 11.888L148.904 24.176H157.208L153.032 11.888ZM222.11 24.032V38H214.958V24.032L203.102 3.72803L211.07 3.72803L218.462 17.6L226.094 3.72803L233.678 3.72803L222.11 24.032ZM218.504 11.2998L213.717 2.31721C213.196 1.33909 212.178 0.728027 211.07 0.728027L203.102 0.728027C202.027 0.728027 201.035 1.30262 200.5 2.23442C199.965 3.16622 199.969 4.31295 200.511 5.24078L211.958 24.8438V38C211.958 39.6569 213.301 41 214.958 41H222.11C223.767 41 225.11 39.6569 225.11 38V24.8267L236.284 5.21312C236.813 4.28453 236.809 3.14461 236.272 2.22059C235.735 1.29658 234.747 0.728027 233.678 0.728027L226.094 0.728027C225 0.728027 223.993 1.32347 223.465 2.28192L218.504 11.2998Z" fill="black" opacity="1"/>
</svg>
