<svg width="243" height="41" viewBox="0 0 243 41" fill="none" xmlns="http://www.w3.org/2000/svg">
<path fill-rule="evenodd" clip-rule="evenodd" d="M0.503906 3.72754C0.503906 2.07068 1.84705 0.727539 3.50391 0.727539L15.7439 0.727539C18.5555 0.727539 21.078 1.0477 23.204 1.804C25.217 2.47895 26.9983 3.45659 28.3906 4.83574C29.7653 6.13537 30.7451 7.70613 31.2823 9.51329C31.7911 11.0938 32.0399 12.7379 32.0399 14.4315C32.0399 16.2053 31.7955 17.9286 31.2966 19.5897C30.772 21.4493 29.8115 23.0917 28.4576 24.488C27.0755 25.9143 25.3063 26.9455 23.2932 27.6684C21.1894 28.4355 18.7008 28.7595 15.9359 28.7595H13.5599V37.9995C13.5599 39.6564 12.2168 40.9995 10.5599 40.9995H3.50391C1.84705 40.9995 0.503906 39.6564 0.503906 37.9995L0.503906 3.72754ZM10.5599 25.7595L15.9359 25.7595C18.4959 25.7595 20.6079 25.4555 22.2719 24.8475C23.9679 24.2395 25.3119 23.4235 26.3039 22.3995C27.3279 21.3435 28.0319 20.1275 28.4159 18.7515C28.8319 17.3755 29.0399 15.9355 29.0399 14.4315C29.0399 13.0235 28.8319 11.6795 28.4159 10.3995C28.0319 9.08754 27.3279 7.95154 26.3039 6.99154C25.3119 5.99954 23.9519 5.21554 22.2239 4.63954C20.5279 4.03154 18.3679 3.72754 15.7439 3.72754L3.50391 3.72754L3.50391 37.9995H10.5599L10.5599 25.7595ZM17.8536 16.5663L17.8857 16.5562C18.4186 16.3922 18.631 16.2284 18.689 16.1744C18.7436 16.1233 18.7652 16.0892 18.7855 16.0079C18.7936 15.9756 18.8022 15.9434 18.8113 15.9114C18.9196 15.5324 18.9839 15.0921 18.9839 14.5755C18.9839 14.0076 18.9149 13.6193 18.8352 13.3669C18.8094 13.2854 18.7825 13.2461 18.7231 13.1946C18.6849 13.1615 18.4824 13.0104 17.94 12.8644L17.911 12.8564C17.4707 12.7331 16.7449 12.6315 15.6479 12.6315H13.5599V16.8075H15.6959C16.7691 16.8075 17.4552 16.6937 17.8536 16.5663ZM10.5599 19.8075L10.5599 9.63154H15.6479C16.8959 9.63154 17.9199 9.74354 18.7199 9.96754C19.5519 10.1915 20.2079 10.5115 20.6879 10.9275C21.1679 11.3435 21.5039 11.8555 21.6959 12.4635C21.8879 13.0715 21.9839 13.7755 21.9839 14.5755C21.9839 15.3435 21.8879 16.0635 21.6959 16.7355C21.5359 17.3755 21.2159 17.9195 20.7359 18.3675C20.2559 18.8155 19.5999 19.1675 18.7679 19.4235C17.9679 19.6795 16.9439 19.8075 15.6959 19.8075L10.5599 19.8075ZM69.607 3.72754C69.607 2.07068 70.9502 0.727539 72.607 0.727539L84.751 0.727539C87.6322 0.727539 90.2149 1.06472 92.3853 1.86262C94.4382 2.57571 96.2461 3.59768 97.6411 5.03098C98.9412 6.33599 99.8939 7.86383 100.431 9.60175C100.898 11.0844 101.143 12.5856 101.143 14.0955C101.143 16.6538 100.681 19.0252 99.5917 21.0724C98.8859 22.3993 97.9131 23.5344 96.7361 24.4988L102.577 36.7045C103.022 37.6341 102.959 38.7269 102.409 39.5988C101.86 40.4706 100.902 40.9995 99.871 40.9995H92.143C90.9605 40.9995 89.8883 40.3048 89.405 39.2255L84.4393 28.1355H82.663V37.9995C82.663 39.6564 81.3199 40.9995 79.663 40.9995H72.607C70.9502 40.9995 69.607 39.6564 69.607 37.9995V3.72754ZM79.663 25.1355H86.383L92.143 37.9995H99.871L92.911 23.4555C94.799 22.4315 96.143 21.1675 96.943 19.6635C97.743 18.1595 98.143 16.3035 98.143 14.0955C98.143 12.9115 97.951 11.7115 97.567 10.4955C97.183 9.24754 96.495 8.12754 95.503 7.13554C94.511 6.11154 93.135 5.29554 91.375 4.68754C89.647 4.04754 87.439 3.72754 84.751 3.72754L72.607 3.72754V37.9995H79.663V25.1355ZM87.679 10.0155C88.511 10.2395 89.151 10.5755 89.599 11.0235C90.079 11.4395 90.415 11.9355 90.607 12.5115C90.799 13.0555 90.895 13.6315 90.895 14.2395C90.895 14.9755 90.815 15.6475 90.655 16.2555C90.495 16.8635 90.191 17.3915 89.743 17.8395C89.327 18.2555 88.751 18.5915 88.015 18.8475C87.279 19.0715 86.351 19.1835 85.231 19.1835H79.663V9.63154L84.607 9.63154C85.855 9.63154 86.879 9.75954 87.679 10.0155ZM82.663 12.6315V16.1835H85.231C86.1312 16.1835 86.7258 16.0951 87.088 15.9932C87.4832 15.8488 87.6125 15.7274 87.6217 15.7182C87.6972 15.6428 87.7301 15.5822 87.7538 15.4921C87.8382 15.1714 87.895 14.7605 87.895 14.2395C87.895 13.9532 87.8509 13.7163 87.7781 13.51C87.7722 13.4935 87.7665 13.4769 87.761 13.4602C87.7472 13.4188 87.7271 13.3711 87.6342 13.2906C87.5821 13.2454 87.5315 13.1984 87.4826 13.1497C87.4719 13.1413 87.3284 13.028 86.8991 12.9124C86.854 12.9002 86.8092 12.887 86.7647 12.8728C86.3664 12.7453 85.6802 12.6315 84.607 12.6315L82.663 12.6315ZM139.366 3.72754C139.366 2.07068 140.71 0.727539 142.366 0.727539L165.742 0.727539C167.399 0.727539 168.742 2.07068 168.742 3.72754V9.82354C168.742 11.4804 167.399 12.8235 165.742 12.8235L152.518 12.8235V14.3115L164.782 14.3115C166.439 14.3115 167.782 15.6547 167.782 17.3115V23.4555C167.782 25.1124 166.439 26.4555 164.782 26.4555H152.518V28.9035L166.75 28.9035C167.607 28.9035 168.423 29.27 168.993 29.9105C169.562 30.551 169.83 31.4044 169.73 32.2554L169.01 38.3514C168.831 39.8617 167.551 40.9995 166.03 40.9995L142.366 40.9995C140.71 40.9995 139.366 39.6564 139.366 37.9995V3.72754ZM149.518 31.9035V23.4555H164.782V17.3115H149.518V9.82354L165.742 9.82354V3.72754L142.366 3.72754V37.9995L166.03 37.9995L166.75 31.9035L149.518 31.9035ZM204.948 2.01913C205.509 1.21019 206.43 0.727539 207.414 0.727539L215.382 0.727539C216.664 0.727539 217.805 1.54234 218.22 2.75528L223.727 18.8285L229.401 2.73025C229.824 1.53021 230.958 0.727539 232.23 0.727539L239.91 0.727539C240.894 0.727539 241.816 1.21019 242.376 2.01913C242.937 2.82808 243.065 3.86044 242.719 4.78177L229.855 39.0538C229.416 40.2242 228.296 40.9995 227.046 40.9995H220.278C219.028 40.9995 217.909 40.2242 217.47 39.0538L204.606 4.78177C204.26 3.86044 204.388 2.82808 204.948 2.01913ZM223.686 27.9675L215.382 3.72754L207.414 3.72754L220.278 37.9995H227.046L239.91 3.72754L232.23 3.72754L223.686 27.9675Z" fill="black"/>
</svg>
