<svg width="459" height="45" viewBox="0 0 459 45" fill="none" xmlns="http://www.w3.org/2000/svg">
<path fill-rule="evenodd" clip-rule="evenodd" d="M0.503906 5.72801C0.503906 3.51888 2.29477 1.72801 4.50391 1.72801L16.7439 1.72801C19.6188 1.72801 22.2619 2.05375 24.5306 2.85925C26.6403 3.56771 28.5613 4.61031 30.086 6.11756C31.5779 7.53057 32.6494 9.246 33.2376 11.218C33.7774 12.8987 34.0399 14.643 34.0399 16.432C34.0399 18.2959 33.7833 20.1137 33.2567 21.8698C32.6854 23.8899 31.6401 25.6738 30.1769 27.1832M29.4159 20.752C29.8319 19.376 30.0399 17.936 30.0399 16.432C30.0399 15.024 29.8319 13.68 29.4159 12.4C29.0319 11.088 28.3279 9.95201 27.3039 8.99201C26.3119 8.00001 24.9519 7.21601 23.2239 6.64001C21.5279 6.03201 19.3679 5.72801 16.7439 5.72801L4.50391 5.72801L4.50391 40H11.5599L11.5599 27.76H16.9359C19.4959 27.76 21.6079 27.456 23.2719 26.848C24.9679 26.24 26.3119 25.424 27.3039 24.4C28.3279 23.344 29.0319 22.128 29.4159 20.752ZM15.5599 31.76L15.5599 40C15.5599 42.2092 13.769 44 11.5599 44H4.50391C2.29477 44 0.503906 42.2092 0.503906 40L0.503906 5.72801M15.5599 31.76H16.9359C19.7691 31.76 22.383 31.4293 24.6331 30.6093C26.7524 29.8481 28.6634 28.745 30.1755 27.1846M22.6959 18.736C22.8879 18.064 22.9839 17.344 22.9839 16.576C22.9839 15.776 22.8879 15.072 22.6959 14.464C22.5039 13.856 22.1679 13.344 21.6879 12.928C21.2079 12.512 20.5519 12.192 19.7199 11.968C18.9199 11.744 17.8959 11.632 16.6479 11.632H11.5599L11.5599 21.808H16.6959C17.9439 21.808 18.9679 21.68 19.7679 21.424C20.5999 21.168 21.2559 20.816 21.7359 20.368C22.2159 19.92 22.5359 19.376 22.6959 18.736ZM15.5599 17.808H16.6959C17.7108 17.808 18.2843 17.6989 18.5488 17.6143L18.5916 17.6009C18.7209 17.5611 18.8174 17.5242 18.8869 17.494C18.9463 17.2402 18.9839 16.9381 18.9839 16.576C18.9839 16.2854 18.9628 16.0677 18.9369 15.9106C18.8708 15.8865 18.7861 15.859 18.68 15.8305L18.6414 15.8199C18.321 15.7302 17.6946 15.632 16.6479 15.632H15.5599L15.5599 17.808ZM69.607 5.72801C69.607 3.51888 71.3979 1.72801 73.607 1.72801L85.751 1.72801C88.6973 1.72801 91.4047 2.07111 93.722 2.92142C95.8736 3.66989 97.8249 4.76073 99.3534 6.32961C100.757 7.73931 101.798 9.40327 102.386 11.3046C102.88 12.8761 103.143 14.4776 103.143 16.096C103.143 18.771 102.66 21.3142 101.475 23.5425C100.824 24.766 99.9714 25.8312 98.9669 26.7547L104.479 38.2733C105.072 39.5127 104.988 40.9698 104.255 42.1323C103.523 43.2948 102.245 44 100.871 44H93.143C91.5663 44 90.1367 43.0737 89.4923 41.6347L84.7914 31.136H84.663V40C84.663 42.2092 82.8722 44 80.663 44H73.607C71.3979 44 69.607 42.2092 69.607 40V5.72801ZM80.663 27.136H87.383L93.143 40H100.871L93.911 25.456C95.799 24.432 97.143 23.168 97.943 21.664C98.743 20.16 99.143 18.304 99.143 16.096C99.143 14.912 98.951 13.712 98.567 12.496C98.183 11.248 97.495 10.128 96.503 9.13602C95.511 8.11202 94.135 7.29602 92.375 6.68802C90.647 6.04801 88.439 5.72801 85.751 5.72801L73.607 5.72801V40H80.663V27.136ZM88.679 12.016C87.879 11.76 86.855 11.632 85.607 11.632L80.663 11.632V21.184H86.231C87.351 21.184 88.279 21.072 89.015 20.848C89.751 20.592 90.327 20.256 90.743 19.84C91.191 19.392 91.495 18.864 91.655 18.256C91.815 17.648 91.895 16.976 91.895 16.24C91.895 15.632 91.799 15.056 91.607 14.512C91.415 13.936 91.079 13.44 90.599 13.024C90.151 12.576 89.511 12.24 88.679 12.016ZM84.663 17.184H86.231C87.0385 17.184 87.5269 17.1072 87.7812 17.0408C87.8002 17.0335 87.8179 17.0265 87.8342 17.0198C87.87 16.8173 87.895 16.5606 87.895 16.24C87.895 16.1226 87.8835 16.029 87.8662 15.952C87.8205 15.9336 87.7468 15.9075 87.6391 15.8785C87.579 15.8623 87.5192 15.8447 87.4599 15.8257C87.1955 15.7411 86.6219 15.632 85.607 15.632H84.663V17.184ZM139.12 31.6661C139.114 31.6497 139.108 31.6334 139.103 31.6169C138.207 28.9301 137.794 25.9961 137.794 22.864C137.794 19.7319 138.207 16.7979 139.103 14.1111C139.108 14.0947 139.114 14.0783 139.12 14.0619C140.043 11.4073 141.386 9.0437 143.185 7.03951L143.216 7.00639C145.061 4.99729 147.277 3.46383 149.82 2.41452C152.39 1.35361 155.192 0.864014 158.162 0.864014C161.156 0.864014 163.975 1.35123 166.552 2.41452C169.102 3.46716 171.308 5.01369 173.105 7.05643C174.908 9.06971 176.236 11.4448 177.124 14.1111C178.02 16.7979 178.434 19.7319 178.434 22.864C178.434 25.9862 178.023 28.9116 177.133 31.5915C176.276 34.2674 174.962 36.652 173.153 38.672C171.355 40.7145 169.15 42.2609 166.6 43.3135C164.018 44.3791 161.18 44.864 158.162 44.864C155.168 44.864 152.348 44.3768 149.772 43.3135C147.222 42.261 145.008 40.7183 143.185 38.6885C141.386 36.6843 140.043 34.3207 139.12 31.6661ZM170.162 36.016C171.57 34.448 172.626 32.56 173.33 30.352C174.066 28.144 174.434 25.648 174.434 22.864C174.434 20.08 174.066 17.584 173.33 15.376C172.594 13.168 171.522 11.28 170.114 9.71201C168.738 8.14402 167.042 6.94402 165.026 6.11201C163.01 5.28001 160.722 4.86401 158.162 4.86401C155.634 4.86401 153.362 5.28001 151.346 6.11201C149.33 6.94402 147.602 8.14402 146.162 9.71201C144.754 11.28 143.666 13.168 142.898 15.376C142.162 17.584 141.794 20.08 141.794 22.864C141.794 25.648 142.162 28.144 142.898 30.352C143.666 32.56 144.754 34.448 146.162 36.016C147.57 37.584 149.282 38.784 151.298 39.616C153.314 40.448 155.602 40.864 158.162 40.864C160.754 40.864 163.058 40.448 165.074 39.616C167.09 38.784 168.786 37.584 170.162 36.016ZM151.394 14.128C149.922 16.176 149.186 19.088 149.186 22.864C149.186 26.672 149.922 29.6 151.394 31.648C152.866 33.696 155.106 34.72 158.114 34.72C161.122 34.72 163.362 33.696 164.834 31.648C166.306 29.6 167.042 26.672 167.042 22.864C167.042 19.088 166.306 16.176 164.834 14.128C163.362 12.048 161.122 11.008 158.114 11.008C155.106 11.008 152.866 12.048 151.394 14.128ZM161.586 16.4626L161.569 16.4387C160.989 15.6192 160.091 15.008 158.114 15.008C156.136 15.008 155.239 15.6192 154.659 16.4387L154.642 16.4626C153.847 17.5681 153.186 19.5315 153.186 22.864C153.186 26.2372 153.85 28.2126 154.642 29.3135C155.212 30.1065 156.112 30.72 158.114 30.72C160.116 30.72 161.016 30.1065 161.586 29.3135C162.377 28.2126 163.042 26.2372 163.042 22.864C163.042 19.5315 162.38 17.5681 161.586 16.4626ZM250.98 25.442C251.738 26.269 252.114 27.3762 252.016 28.4935C251.82 30.7273 251.286 32.8565 250.392 34.8533C249.506 36.8717 248.254 38.652 246.654 40.1678L246.652 40.1699C245.018 41.7153 243.058 42.8603 240.864 43.6594C238.599 44.4964 236.098 44.864 233.439 44.864C230.404 44.864 227.555 44.3577 224.978 43.2354L224.956 43.2257C222.477 42.1287 220.339 40.5595 218.594 38.5232L218.563 38.4869C216.865 36.4573 215.636 34.0762 214.828 31.4207L214.823 31.4054C214.024 28.7417 213.647 25.8844 213.647 22.864C213.647 19.7319 214.06 16.7979 214.956 14.1111C215.841 11.4559 217.146 9.08628 218.912 7.07365C220.691 5.04727 222.849 3.49515 225.342 2.43232C227.864 1.35767 230.618 0.864014 233.535 0.864014C236.025 0.864014 238.363 1.17287 240.474 1.88882C242.56 2.58537 244.436 3.63452 245.999 5.09892C247.515 6.49087 248.712 8.15094 249.592 10.0365L245.967 11.728C245.295 10.288 244.399 9.05602 243.279 8.03202C242.191 7.00802 240.831 6.22402 239.199 5.68001C237.599 5.13601 235.711 4.86401 233.535 4.86401C231.071 4.86401 228.863 5.28001 226.911 6.11201C224.959 6.94402 223.295 8.14402 221.919 9.71201C220.543 11.28 219.487 13.168 218.751 15.376C218.015 17.584 217.647 20.08 217.647 22.864C217.647 25.552 217.983 28.016 218.655 30.256C219.327 32.464 220.319 34.352 221.631 35.92C222.975 37.488 224.623 38.704 226.575 39.568C228.559 40.432 230.847 40.864 233.439 40.864C235.743 40.864 237.759 40.544 239.487 39.904C241.247 39.264 242.719 38.384 243.903 37.264C245.119 36.112 246.063 34.768 246.735 33.232C246.895 32.8759 247.04 32.5133 247.172 32.144C247.621 30.8871 247.907 29.5538 248.031 28.144H240.351C240.095 30.256 239.439 31.888 238.383 33.04C237.359 34.16 235.743 34.72 233.535 34.72C230.975 34.72 228.927 33.696 227.391 31.648C225.887 29.6 225.135 26.672 225.135 22.864C225.135 19.088 225.839 16.176 227.247 14.128C228.687 12.048 230.783 11.008 233.535 11.008C235.711 11.008 237.295 11.584 238.287 12.736C239.311 13.888 239.999 15.472 240.351 17.488L247.455 16.576C247.204 15.1695 246.844 13.8714 246.376 12.6817C246.248 12.3556 246.111 12.0378 245.967 11.728L249.592 10.0365C250.43 11.8327 251.02 13.7877 251.393 15.8729C251.585 16.9507 251.327 18.0603 250.679 18.9429C250.031 19.8256 249.05 20.404 247.964 20.5435L240.86 21.4555C238.739 21.7278 236.778 20.283 236.41 18.176C236.145 16.6583 235.691 15.836 235.297 15.3935C235.287 15.3823 235.277 15.3711 235.268 15.3598L235.256 15.3461C235.251 15.3406 235.201 15.2767 234.988 15.1992C234.741 15.1093 234.285 15.008 233.535 15.008C231.963 15.008 231.158 15.5088 230.539 16.3993C229.773 17.5178 229.135 19.5088 229.135 22.864C229.135 26.2071 229.804 28.1659 230.603 29.2646C231.381 30.2934 232.241 30.72 233.535 30.72C234.316 30.72 234.809 30.6191 235.093 30.5205C235.348 30.4322 235.419 30.3534 235.43 30.3416L235.434 30.3371C235.754 29.9879 236.189 29.2393 236.38 27.6627C236.623 25.6544 238.328 24.144 240.351 24.144H248.031C249.152 24.144 250.223 24.6149 250.98 25.442ZM287.37 5.72801C287.37 3.51888 289.16 1.72801 291.37 1.72801L314.746 1.72801C316.955 1.72801 318.746 3.51888 318.746 5.72801V11.824C318.746 13.7466 317.389 15.3524 315.581 15.7366C316.888 16.3945 317.786 17.7485 317.786 19.312V25.456C317.786 27.6652 315.995 29.456 313.786 29.456H302.522V29.904H315.754C316.896 29.904 317.984 30.3926 318.743 31.2466C319.502 32.1006 319.86 33.2385 319.726 34.3732L319.006 40.4692C318.768 42.4828 317.061 44 315.034 44H291.37C289.16 44 287.37 42.2092 287.37 40V5.72801ZM298.522 33.904V25.456L313.786 25.456V19.312L298.522 19.312V11.824L314.746 11.824V5.72801L291.37 5.72801V40H315.034L315.754 33.904H298.522ZM368.519 25.312L372.983 26.128C374.775 26.48 376.007 27.056 376.679 27.856C377.351 28.624 377.687 29.456 377.687 30.352C377.687 30.992 377.575 31.584 377.351 32.128C377.159 32.672 376.823 33.152 376.343 33.568C375.863 33.952 375.239 34.272 374.471 34.528C373.703 34.752 372.759 34.864 371.639 34.864C369.303 34.864 367.527 34.384 366.311 33.424C365.127 32.464 364.455 30.928 364.295 28.816H357.047C357.117 30.2827 357.337 31.6161 357.708 32.816C358.356 34.9147 359.463 36.6054 361.031 37.888C363.527 39.872 367.111 40.864 371.783 40.864C374.023 40.864 375.975 40.592 377.639 40.048C379.303 39.536 380.679 38.816 381.767 37.888C382.887 36.928 383.719 35.824 384.263 34.576C384.839 33.296 385.127 31.904 385.127 30.4C385.127 27.296 384.263 24.928 382.535 23.296C380.807 21.632 378.087 20.432 374.375 19.696L369.671 18.784C367.943 18.432 366.711 17.936 365.975 17.296C365.271 16.656 364.919 15.696 364.919 14.416C364.919 13.936 365.015 13.472 365.207 13.024C365.399 12.576 365.735 12.192 366.215 11.872C366.695 11.52 367.319 11.248 368.087 11.056C368.887 10.832 369.895 10.72 371.111 10.72C373.159 10.72 374.679 11.136 375.671 11.968C376.695 12.8 377.383 14.16 377.735 16.048L384.503 15.184C384.503 15.1834 384.503 15.1828 384.503 15.1822C384.493 15.0979 384.482 15.0137 384.471 14.9297C384.3 13.6763 383.975 12.4651 383.495 11.296C383.493 11.291 383.491 11.286 383.489 11.281C383.009 10.0393 382.259 8.95629 381.239 8.03202C380.215 7.07201 378.871 6.30401 377.207 5.72801C375.543 5.15201 373.463 4.86401 370.967 4.86401C369.015 4.86401 367.223 5.08801 365.591 5.53601C363.959 5.95201 362.551 6.57601 361.367 7.40802C360.215 8.24001 359.303 9.28001 358.631 10.528C357.991 11.776 357.671 13.216 357.671 14.848C357.671 16.48 357.911 17.888 358.391 19.072C358.871 20.256 359.559 21.264 360.455 22.096C361.383 22.896 362.519 23.552 363.863 24.064C365.207 24.576 366.759 24.992 368.519 25.312ZM364.567 1.66908C366.582 1.11983 368.724 0.864014 370.967 0.864014C373.738 0.864014 376.295 1.17946 378.515 1.94807C380.568 2.65864 382.43 3.67366 383.95 5.09032C385.398 6.40957 386.503 7.99371 387.212 9.81785C387.853 11.3893 388.274 13.0236 388.475 14.7112C388.735 16.8917 387.188 18.8737 385.01 19.1518L383.965 19.2851C384.436 19.6312 384.88 20.0028 385.296 20.4017C388.039 23.0007 389.127 26.5558 389.127 30.4C389.127 32.4207 388.738 34.3696 387.921 36.1956C387.115 38.0334 385.904 39.6104 384.37 40.925L384.363 40.9314C382.788 42.2743 380.91 43.2227 378.848 43.861C376.698 44.5592 374.32 44.864 371.783 44.864C366.613 44.864 362.009 43.7751 358.542 41.0193C358.527 41.0076 358.513 40.9958 358.498 40.9838C354.934 38.0676 353.282 33.846 353.052 29.0063C353 27.9136 353.397 26.8473 354.152 26.0557C354.907 25.264 355.953 24.816 357.047 24.816H357.511C356.277 23.6108 355.335 22.1815 354.684 20.5748C353.965 18.8011 353.671 16.8583 353.671 14.848C353.671 12.6852 354.098 10.6013 355.072 8.70275C355.084 8.67891 355.096 8.6552 355.109 8.63162C356.068 6.85006 357.384 5.35023 359.025 4.1653L359.047 4.14992L359.067 4.13525C360.698 2.98934 362.555 2.18598 364.567 1.66908ZM373.393 15.431C373.26 15.1663 373.157 15.0789 373.149 15.0725C373.133 15.0594 373.117 15.0461 373.101 15.0328C373.103 15.0345 373.104 15.0354 373.104 15.0355C373.103 15.037 372.658 14.72 371.111 14.72C370.678 14.72 370.317 14.7379 370.021 14.7656C370.155 14.7976 370.299 14.8295 370.452 14.8609C370.458 14.8621 370.464 14.8633 370.469 14.8645L373.393 15.431ZM368.399 29.3564L372.212 30.053C372.22 30.0546 372.228 30.0562 372.236 30.0578C372.901 30.1898 373.319 30.3362 373.557 30.4475C373.61 30.4725 373.65 30.4933 373.677 30.5088C373.675 30.5232 373.672 30.5358 373.67 30.5468C373.582 30.5908 373.457 30.6458 373.286 30.7061C372.982 30.7854 372.457 30.864 371.639 30.864C369.827 30.864 369.069 30.4917 368.813 30.3026C368.749 30.2444 368.542 30.0193 368.399 29.3564ZM438.325 25.312L442.789 26.128C444.581 26.48 445.813 27.056 446.485 27.856C447.157 28.624 447.493 29.456 447.493 30.352C447.493 30.992 447.381 31.584 447.157 32.128C446.965 32.672 446.629 33.152 446.149 33.568C445.669 33.952 445.045 34.272 444.277 34.528C443.509 34.752 442.565 34.864 441.445 34.864C439.109 34.864 437.333 34.384 436.117 33.424C434.933 32.464 434.261 30.928 434.101 28.816L426.853 28.816C426.923 30.2827 427.143 31.6161 427.514 32.816C428.162 34.9147 429.27 36.6054 430.837 37.888C433.333 39.872 436.917 40.864 441.589 40.864C443.829 40.864 445.781 40.592 447.445 40.048C449.109 39.536 450.485 38.816 451.573 37.888C452.693 36.928 453.525 35.824 454.069 34.576C454.645 33.296 454.933 31.904 454.933 30.4C454.933 27.296 454.069 24.928 452.341 23.296C450.613 21.632 447.893 20.432 444.181 19.696L439.477 18.784C437.749 18.432 436.517 17.936 435.781 17.296C435.077 16.656 434.725 15.696 434.725 14.416C434.725 13.936 434.821 13.472 435.013 13.024C435.205 12.576 435.541 12.192 436.021 11.872C436.501 11.52 437.125 11.248 437.893 11.056C438.693 10.832 439.701 10.72 440.917 10.72C442.965 10.72 444.485 11.136 445.477 11.968C446.501 12.8 447.189 14.16 447.541 16.048L454.309 15.184C454.309 15.1834 454.309 15.1828 454.309 15.1822C454.299 15.0979 454.288 15.0137 454.277 14.9297C454.106 13.6763 453.781 12.4651 453.301 11.296C453.299 11.291 453.297 11.286 453.296 11.281C452.815 10.0393 452.065 8.95629 451.045 8.03202C450.021 7.07201 448.677 6.30401 447.013 5.72801C445.349 5.15201 443.269 4.86401 440.773 4.86401C438.821 4.86401 437.029 5.08801 435.397 5.53601C433.765 5.95201 432.357 6.57601 431.173 7.40802C430.021 8.24001 429.109 9.28001 428.437 10.528C427.797 11.776 427.477 13.216 427.477 14.848C427.477 16.48 427.717 17.888 428.197 19.072C428.677 20.256 429.365 21.264 430.261 22.096C431.189 22.896 432.325 23.552 433.669 24.064C435.013 24.576 436.565 24.992 438.325 25.312ZM434.374 1.66908C436.388 1.11983 438.53 0.864014 440.773 0.864014C443.544 0.864014 446.101 1.17946 448.322 1.94807C450.375 2.65864 452.236 3.67366 453.756 5.09032C455.204 6.40957 456.309 7.99371 457.018 9.81785C457.659 11.3893 458.08 13.0236 458.281 14.7112C458.541 16.8917 456.994 18.8737 454.816 19.1518L453.771 19.2851C454.242 19.6312 454.687 20.0028 455.102 20.4017C457.845 23.0007 458.933 26.5558 458.933 30.4C458.933 32.4207 458.545 34.3696 457.727 36.1956C456.922 38.0334 455.71 39.6104 454.176 40.925L454.169 40.9314C452.595 42.2743 450.716 43.2227 448.655 43.861C446.504 44.5592 444.126 44.864 441.589 44.864C436.42 44.864 431.815 43.7751 428.348 41.0193L428.326 41.0014L428.304 40.9838C424.74 38.0676 423.088 33.846 422.858 29.0063C422.806 27.9136 423.204 26.8473 423.958 26.0557C424.713 25.264 425.759 24.816 426.853 24.816H427.318C426.083 23.6108 425.142 22.1815 424.49 20.5748C423.771 18.8011 423.477 16.8583 423.477 14.848C423.477 12.6852 423.904 10.6013 424.878 8.70275C424.89 8.67891 424.903 8.6552 424.915 8.63162C425.875 6.85006 427.191 5.35023 428.831 4.1653C428.845 4.15519 428.859 4.14517 428.874 4.13525C430.504 2.98934 432.361 2.18598 434.374 1.66908ZM443.199 15.431C443.066 15.1663 442.963 15.0789 442.955 15.0725C442.945 15.0646 442.936 15.0568 442.926 15.0489L442.91 15.0355C442.909 15.037 442.464 14.72 440.917 14.72C440.484 14.72 440.124 14.7379 439.827 14.7656C439.961 14.7976 440.105 14.8295 440.258 14.8609C440.264 14.8621 440.27 14.8633 440.276 14.8645L443.199 15.431ZM443.483 30.5088C443.456 30.4933 443.417 30.4725 443.363 30.4475C443.125 30.3362 442.707 30.1898 442.043 30.0578C442.035 30.0562 442.026 30.0546 442.018 30.053L438.206 29.3564C438.349 30.0193 438.555 30.2444 438.62 30.3026C438.876 30.4917 439.633 30.864 441.445 30.864C442.263 30.864 442.788 30.7854 443.092 30.7061C443.263 30.6458 443.388 30.5908 443.476 30.5468C443.479 30.5358 443.481 30.5232 443.483 30.5088Z" fill="black"/>
</svg>
