<svg width="608" height="55" viewBox="0 0 608 55" fill="none" xmlns="http://www.w3.org/2000/svg">
<path fill-rule="evenodd" clip-rule="evenodd" d="M0.671875 4.30398C0.671875 2.64712 2.01502 1.30398 3.67188 1.30398H19.9919C23.6777 1.30398 26.9204 1.72536 29.6121 2.68447C32.2 3.55108 34.435 4.78977 36.1586 6.50019C37.8745 8.11967 39.0891 10.0692 39.7543 12.3138C40.4017 14.321 40.7199 16.4132 40.7199 18.576C40.7199 20.851 40.4061 23.0543 39.7686 25.174C39.116 27.4924 37.9208 29.5402 36.2256 31.2884C34.5126 33.0563 32.295 34.3596 29.7164 35.2851C27.058 36.2547 23.8656 36.68 20.2479 36.68H16.0799V50C16.0799 51.6568 14.7367 53 13.0799 53H3.67188C2.01502 53 0.671875 51.6568 0.671875 50V4.30398ZM13.0799 33.68H20.2479C23.6612 33.68 26.4772 33.2746 28.6959 32.464C30.9572 31.6533 32.7492 30.5653 34.0719 29.2C35.4372 27.792 36.3759 26.1706 36.8879 24.336C37.4425 22.5013 37.7199 20.5813 37.7199 18.576C37.7199 16.6986 37.4425 14.9066 36.8879 13.2C36.3759 11.4506 35.4372 9.93598 34.0719 8.65598C32.7492 7.33331 30.9359 6.28798 28.6319 5.51998C26.3705 4.70931 23.4905 4.30398 19.9919 4.30398H3.67188V50H13.0799V33.68ZM23.1095 22.3747L23.1416 22.3646C23.9519 22.1153 24.383 21.8342 24.6009 21.6308C24.8156 21.4304 24.9438 21.2149 25.0174 20.9204C25.0255 20.888 25.0341 20.8559 25.0433 20.8238C25.2156 20.2209 25.3119 19.5405 25.3119 18.768C25.3119 17.9333 25.2108 17.3104 25.0671 16.8554C24.9774 16.5712 24.8385 16.3612 24.6191 16.171C24.4209 15.9993 23.9997 15.7415 23.18 15.5208L23.151 15.5129C22.444 15.3149 21.3769 15.176 19.8639 15.176H16.0799V22.744H19.9279C21.4171 22.744 22.4445 22.5875 23.1095 22.3747ZM13.0799 25.744V12.176H19.8639C21.5279 12.176 22.8932 12.3253 23.9599 12.624C25.0692 12.9226 25.9439 13.3493 26.5839 13.904C27.2239 14.4586 27.6719 15.1413 27.9279 15.952C28.1839 16.7626 28.3119 17.7013 28.3119 18.768C28.3119 19.792 28.1839 20.752 27.9279 21.648C27.7145 22.5013 27.2879 23.2266 26.6479 23.824C26.0079 24.4213 25.1332 24.8906 24.0239 25.232C22.9572 25.5733 21.5919 25.744 19.9279 25.744H13.0799ZM92.8094 4.30398C92.8094 2.64712 94.1525 1.30398 95.8094 1.30398H112.001C115.778 1.30398 119.097 1.74771 121.844 2.7591C124.482 3.67455 126.749 4.96824 128.475 6.74315C130.106 8.3785 131.288 10.2794 131.953 12.4331C132.548 14.3214 132.857 16.223 132.857 18.128C132.857 21.4222 132.262 24.4123 130.906 26.9608C129.918 28.8189 128.496 30.3904 126.733 31.7063L134.867 48.705C135.312 49.6345 135.249 50.7273 134.7 51.5992C134.15 52.4711 133.192 53 132.161 53H121.857C120.675 53 119.603 52.3053 119.119 51.226L112.234 35.848H108.217V50C108.217 51.6568 106.874 53 105.217 53H95.8094C94.1525 53 92.8094 51.6568 92.8094 50V4.30398ZM105.217 32.848H114.177L121.857 50H132.161L122.881 30.608C125.399 29.2426 127.191 27.5573 128.257 25.552C129.324 23.5466 129.857 21.072 129.857 18.128C129.857 16.5493 129.601 14.9493 129.089 13.328C128.577 11.664 127.66 10.1706 126.337 8.84798C125.015 7.48265 123.18 6.39465 120.833 5.58398C118.529 4.73065 115.585 4.30398 112.001 4.30398H95.8094V50H105.217V32.848ZM116.98 17.0144C116.975 16.9979 116.969 16.9813 116.963 16.9647C116.886 16.7313 116.753 16.5182 116.501 16.299C116.447 16.2523 116.394 16.2037 116.344 16.1533C116.228 16.0377 115.903 15.7941 115.125 15.5848C115.08 15.5727 115.036 15.5595 114.991 15.5453C114.326 15.3324 113.299 15.176 111.809 15.176H108.217V21.912H112.641C113.921 21.912 114.824 21.7849 115.425 21.6102C116.073 21.3779 116.392 21.1428 116.536 20.9987L118.657 23.12C118.103 23.6746 117.335 24.1226 116.353 24.464C115.372 24.7626 114.135 24.912 112.641 24.912H105.217V12.176H111.809C113.473 12.176 114.839 12.3466 115.905 12.688C117.015 12.9866 117.868 13.4346 118.465 14.032C119.105 14.5866 119.553 15.248 119.809 16.016C120.065 16.7413 120.193 17.5093 120.193 18.32C120.193 19.3013 120.087 20.1973 119.873 21.008C119.66 21.8186 119.255 22.5226 118.657 23.12L116.536 20.9987C116.761 20.7739 116.895 20.5373 116.972 20.2445C117.11 19.7211 117.193 19.0863 117.193 18.32C117.193 17.8309 117.117 17.4021 116.98 17.0144ZM185.363 38.1215L185.351 38.0847C184.25 34.7815 183.725 31.1251 183.725 27.152C183.725 23.1789 184.25 19.5224 185.351 16.2193L185.363 16.1824C186.504 12.9035 188.146 10.0294 190.317 7.6116L190.339 7.58676C192.563 5.16527 195.233 3.31517 198.316 2.04286C201.42 0.761839 204.847 0.151978 208.549 0.151978C212.288 0.151978 215.737 0.760059 218.845 2.04286C221.934 3.31757 224.577 5.17733 226.728 7.62387C228.902 10.0487 230.523 12.9315 231.619 16.2193C232.72 19.5224 233.245 23.1789 233.245 27.152C233.245 31.1178 232.722 34.7682 231.625 38.0666C230.572 41.3606 228.971 44.2499 226.793 46.6794C224.642 49.1263 221.998 50.9863 218.909 52.2611C215.797 53.5456 212.325 54.152 208.549 54.152C204.81 54.152 201.361 53.5439 198.252 52.2611C195.164 50.9864 192.505 49.1294 190.317 46.6924C188.146 44.2745 186.504 41.4005 185.363 38.1215ZM224.549 44.688C226.426 42.5973 227.834 40.08 228.773 37.136C229.754 34.192 230.245 30.864 230.245 27.152C230.245 23.44 229.754 20.112 228.773 17.168C227.792 14.224 226.362 11.7066 224.485 9.61598C222.65 7.52531 220.389 5.92531 217.701 4.81598C215.013 3.70665 211.962 3.15198 208.549 3.15198C205.178 3.15198 202.149 3.70665 199.461 4.81598C196.773 5.92531 194.469 7.52531 192.549 9.61598C190.672 11.7066 189.221 14.224 188.197 17.168C187.216 20.112 186.725 23.44 186.725 27.152C186.725 30.864 187.216 34.192 188.197 37.136C189.221 40.08 190.672 42.5973 192.549 44.688C194.426 46.7786 196.709 48.3786 199.397 49.488C202.085 50.5973 205.136 51.152 208.549 51.152C212.005 51.152 215.077 50.5973 217.765 49.488C220.453 48.3786 222.714 46.7786 224.549 44.688ZM215.009 17.2549L214.996 17.237C213.702 15.409 211.723 14.344 208.485 14.344C205.247 14.344 203.267 15.409 201.974 17.237L201.961 17.2549C200.506 19.2787 199.581 22.4499 199.581 27.152C199.581 31.9032 200.509 35.0928 201.961 37.1131C203.247 38.9025 205.229 39.96 208.485 39.96C211.741 39.96 213.723 38.9025 215.009 37.1131C216.461 35.0928 217.389 31.9032 217.389 27.152C217.389 22.4499 216.463 19.2787 215.009 17.2549ZM330.586 32.1655C331.155 32.7857 331.436 33.6161 331.363 34.4541C331.123 37.1924 330.471 39.7778 329.39 42.1894C328.334 44.6003 326.844 46.7203 324.934 48.5298L324.932 48.5314C323.016 50.3436 320.688 51.7155 318.017 52.6881C315.309 53.6895 312.257 54.152 308.918 54.152C305.13 54.152 301.659 53.5203 298.569 52.1745L298.552 52.1673C295.555 50.8405 292.99 48.9542 290.897 46.5124L290.874 46.4851C288.835 44.0483 287.335 41.1611 286.336 37.8815L286.333 37.87C285.342 34.5656 284.862 30.9853 284.862 27.152C284.862 23.1789 285.387 19.5224 286.488 16.2193C287.581 12.9399 289.176 10.0613 291.303 7.63721C293.44 5.20275 296.029 3.33866 299.038 2.05621C302.068 0.764884 305.421 0.151978 309.046 0.151978C312.183 0.151978 315.039 0.54231 317.556 1.39684C320.071 2.23658 322.272 3.48084 324.079 5.17697C325.87 6.81813 327.289 8.78163 328.341 11.0353C329.362 13.2225 330.094 15.6314 330.56 18.2406C330.704 19.049 330.511 19.8812 330.025 20.5432C329.539 21.2051 328.803 21.639 327.988 21.7436L318.516 22.9596C316.925 23.1638 315.455 22.0802 315.179 20.5C314.775 18.1857 314.033 16.645 313.14 15.6411C313.13 15.6293 313.119 15.6175 313.109 15.6055C312.569 14.9778 311.463 14.344 309.046 14.344C306.262 14.344 304.436 15.3262 303.132 17.207C301.736 19.2399 300.846 22.4317 300.846 27.152C300.846 31.8829 301.788 35.0587 303.263 37.0757C304.743 39.0429 306.582 39.96 309.046 39.96C311.537 39.96 312.717 39.3291 313.296 38.6957L313.299 38.6928C314.155 37.7589 314.864 36.2455 315.156 33.831C315.339 32.3248 316.617 31.192 318.134 31.192H328.374C329.216 31.192 330.018 31.5452 330.586 32.1655ZM300.854 38.864C298.849 36.1333 297.846 32.2293 297.846 27.152C297.846 22.1173 298.785 18.2346 300.662 15.504C302.582 12.7306 305.377 11.344 309.046 11.344C311.948 11.344 314.06 12.112 315.382 13.648C316.748 15.1839 317.665 17.2958 318.134 19.9837C318.134 19.9838 318.134 19.9835 318.134 19.9837L327.606 18.768C327.424 17.7458 327.198 16.7665 326.93 15.8302C326.571 14.578 326.135 13.4026 325.622 12.304C324.726 10.384 323.532 8.74131 322.038 7.37598C320.588 6.01065 318.774 4.96531 316.598 4.23998C314.465 3.51464 311.948 3.15198 309.046 3.15198C305.761 3.15198 302.817 3.70665 300.214 4.81598C297.612 5.92531 295.393 7.52531 293.558 9.61598C291.724 11.7066 290.316 14.224 289.334 17.168C288.353 20.112 287.862 23.44 287.862 27.152C287.862 30.736 288.31 34.0213 289.206 37.008C290.102 39.952 291.425 42.4693 293.174 44.56C294.966 46.6506 297.164 48.272 299.766 49.424C302.412 50.576 305.462 51.152 308.918 51.152C311.99 51.152 314.678 50.7253 316.982 49.872C319.329 49.0186 321.292 47.8453 322.87 46.352C324.492 44.816 325.75 43.024 326.646 40.976C327.187 39.7713 327.608 38.51 327.908 37.192C328.128 36.2226 328.284 35.2226 328.374 34.192H318.134C317.793 37.008 316.918 39.184 315.51 40.72C314.145 42.2133 311.99 42.96 309.046 42.96C305.633 42.96 302.902 41.5946 300.854 38.864ZM383.159 4.30398C383.159 2.64712 384.503 1.30398 386.159 1.30398H417.327C418.984 1.30398 420.327 2.64712 420.327 4.30398V12.432C420.327 14.0888 418.984 15.432 417.327 15.432H398.695V19.416H416.047C417.704 19.416 419.047 20.7591 419.047 22.416V30.608C419.047 32.2648 417.704 33.608 416.047 33.608H398.695V38.872H418.671C419.528 38.872 420.344 39.2384 420.914 39.8789C421.483 40.5195 421.751 41.3728 421.651 42.2239L420.691 50.3519C420.512 51.8621 419.232 53 417.711 53H386.159C384.503 53 383.159 51.6568 383.159 50V4.30398ZM395.695 41.872V30.608H416.047V22.416H395.695V12.432H417.327V4.30398H386.159V50H417.711L418.671 41.872H395.695ZM485.101 32.6214C485.821 33.1204 486.314 33.9275 486.385 34.8614C486.56 37.168 487.242 38.3028 487.956 38.8899C488.842 39.5809 490.435 40.152 493.185 40.152C494.465 40.152 495.405 40.0252 496.069 39.839C496.785 39.595 497.249 39.3374 497.537 39.1174C497.793 38.8848 497.91 38.6818 497.972 38.5055C497.98 38.4836 497.988 38.4617 497.996 38.4399C498.006 38.4137 498.017 38.3876 498.027 38.3617C498.164 38.0295 498.249 37.6321 498.249 37.136C498.249 36.7689 498.136 36.3416 497.648 35.7835C497.634 35.7683 497.621 35.753 497.608 35.7376C497.379 35.4642 496.573 34.8772 494.418 34.4514C494.412 34.4502 494.405 34.4489 494.399 34.4477L488.489 33.3676C488.489 33.3676 488.489 33.3676 488.489 33.3676C487.306 33.1526 486.176 32.9045 485.101 32.6214ZM483.27 32.088H473.729C472.909 32.088 472.124 32.424 471.558 33.0177C470.992 33.6115 470.694 34.4112 470.733 35.2307C471.018 41.2125 473.031 46.1427 477.142 49.5059L477.175 49.5325C481.231 52.7566 486.775 54.152 493.377 54.152C496.586 54.152 499.508 53.7648 502.092 52.9237C504.609 52.1464 506.82 51.0153 508.636 49.4665L508.642 49.4618C510.444 47.9168 511.838 46.0915 512.759 43.9866C513.709 41.8693 514.169 39.5942 514.169 37.2C514.169 32.5067 512.849 28.4587 509.784 25.5573C507.713 23.5672 504.939 22.1002 501.619 21.0484C501.644 21.0459 501.668 21.043 501.693 21.0398L510.717 19.8878C512.351 19.6793 513.511 18.1927 513.316 16.5573C513.072 14.5078 512.56 12.5263 511.781 10.6198C510.97 8.52345 509.702 6.70049 508.018 5.16982C506.281 3.54693 504.1 2.33776 501.591 1.46902C498.955 0.556565 495.823 0.151978 492.289 0.151978C489.469 0.151978 486.817 0.474404 484.354 1.1477C481.893 1.77794 479.679 2.74439 477.765 4.08941L477.733 4.11194C475.83 5.48597 474.311 7.21751 473.2 9.28168C473.19 9.29937 473.181 9.31715 473.172 9.33503C472.068 11.487 471.561 13.8899 471.561 16.464C471.561 18.9237 471.922 21.2022 472.741 23.2231C473.539 25.1899 474.701 26.9049 476.232 28.3264C476.259 28.3515 476.287 28.3761 476.315 28.4002C477.857 29.7301 479.687 30.7699 481.749 31.5554C482.241 31.7428 482.748 31.9202 483.27 32.088ZM485.121 4.04798C482.945 4.60264 481.068 5.43465 479.489 6.54398C477.953 7.65331 476.737 9.03998 475.841 10.704C474.988 12.368 474.561 14.288 474.561 16.464C474.561 18.64 474.881 20.5173 475.521 22.096C476.161 23.6746 477.079 25.0186 478.273 26.128C479.511 27.1946 481.025 28.0693 482.817 28.752C484.609 29.4346 486.679 29.9893 489.025 30.416L494.977 31.504C497.367 31.9733 499.009 32.7413 499.905 33.808C500.801 34.832 501.249 35.9413 501.249 37.136C501.249 37.9893 501.1 38.7786 500.801 39.504C500.545 40.2293 500.097 40.8693 499.457 41.424C498.817 41.936 497.985 42.3626 496.961 42.704C495.937 43.0026 494.679 43.152 493.185 43.152C490.071 43.152 487.703 42.512 486.081 41.232C484.503 39.952 483.607 37.904 483.393 35.088H473.729C473.779 36.1394 473.887 37.1394 474.053 38.088C474.736 41.9897 476.399 45.0217 479.041 47.184C482.369 49.8293 487.148 51.152 493.377 51.152C496.364 51.152 498.967 50.7893 501.185 50.064C503.404 49.3813 505.239 48.4213 506.689 47.184C508.183 45.904 509.292 44.432 510.017 42.768C510.785 41.0613 511.169 39.2053 511.169 37.2C511.169 33.0613 510.017 29.904 507.713 27.728C505.409 25.5093 501.783 23.9093 496.833 22.928L490.561 21.712C488.257 21.2426 486.615 20.5813 485.633 19.728C484.695 18.8746 484.225 17.5946 484.225 15.888C484.225 15.248 484.353 14.6293 484.609 14.032C484.865 13.4346 485.313 12.9226 485.953 12.496C486.593 12.0266 487.425 11.664 488.449 11.408C489.516 11.1093 490.86 10.96 492.481 10.96C495.212 10.96 497.239 11.5146 498.561 12.624C499.927 13.7333 500.844 15.5465 501.313 18.0637C501.313 18.0638 501.313 18.0636 501.313 18.0637L510.337 16.912C510.337 16.9114 510.337 16.9108 510.337 16.9102C510.324 16.7974 510.309 16.6848 510.294 16.5725C510.173 15.6864 509.995 14.8161 509.758 13.9616C509.549 13.2047 509.294 12.4601 508.993 11.728C508.353 10.064 507.351 8.61331 505.985 7.37598C504.62 6.09598 502.828 5.07198 500.609 4.30398C498.391 3.53598 495.617 3.15198 492.289 3.15198C489.687 3.15198 487.297 3.45064 485.121 4.04798ZM499.493 20.4489C498.922 20.0129 498.506 19.3721 498.364 18.6138C497.967 16.4847 497.279 15.4472 496.67 14.9523C496.658 14.9425 496.645 14.9326 496.634 14.9226C496.088 14.4647 494.894 13.96 492.481 13.96C491.019 13.96 489.971 14.0974 489.258 14.2969C489.231 14.3044 489.204 14.3116 489.177 14.3184C488.413 14.5095 487.969 14.7382 487.727 14.9152C487.691 14.9417 487.655 14.9673 487.617 14.9921C487.489 15.0776 487.424 15.1424 487.395 15.1755C487.381 15.1921 487.373 15.2028 487.37 15.2075C487.368 15.2119 487.367 15.2137 487.367 15.2137C487.268 15.4436 487.225 15.6607 487.225 15.888C487.225 16.9911 487.5 17.3605 487.63 17.4884C488.039 17.8266 489.059 18.3431 491.147 18.7696C491.151 18.7705 491.156 18.7714 491.16 18.7723L497.417 19.9852C498.127 20.126 498.819 20.2803 499.493 20.4489ZM578.176 32.6214C578.896 33.1204 579.389 33.9276 579.46 34.8614C579.635 37.1671 580.316 38.302 581.03 38.8892C581.916 39.5804 583.509 40.152 586.26 40.152C587.54 40.152 588.48 40.0252 589.144 39.839C589.86 39.595 590.324 39.3374 590.612 39.1174C590.868 38.8848 590.985 38.6818 591.047 38.5055C591.065 38.4571 591.083 38.4092 591.102 38.3617C591.239 38.0295 591.324 37.6321 591.324 37.136C591.324 36.7689 591.211 36.3416 590.723 35.7835C590.709 35.7683 590.696 35.753 590.683 35.7376C590.454 35.4642 589.648 34.8773 587.493 34.4515C587.487 34.4502 587.481 34.449 587.474 34.4477L581.564 33.3676M588.052 31.504C590.442 31.9733 592.084 32.7413 592.98 33.808C593.876 34.832 594.324 35.9413 594.324 37.136C594.324 37.9893 594.175 38.7786 593.876 39.504C593.62 40.2293 593.172 40.8693 592.532 41.424C591.892 41.936 591.06 42.3626 590.036 42.704C589.012 43.0026 587.754 43.152 586.26 43.152C583.146 43.152 580.778 42.512 579.156 41.232C577.578 39.952 576.682 37.904 576.468 35.088H566.804C566.854 36.1394 566.962 37.1394 567.128 38.088C567.811 41.9897 569.474 45.0217 572.116 47.184C575.444 49.8293 580.223 51.152 586.452 51.152C589.439 51.152 592.042 50.7893 594.26 50.064C596.479 49.3813 598.314 48.4213 599.764 47.184C601.258 45.904 602.367 44.432 603.092 42.768C603.86 41.0613 604.244 39.2053 604.244 37.2C604.244 33.0613 603.092 29.904 600.788 27.728C598.484 25.5093 594.858 23.9093 589.908 22.928L583.636 21.712C581.332 21.2426 579.69 20.5813 578.708 19.728C577.77 18.8746 577.3 17.5946 577.3 15.888C577.3 15.248 577.428 14.6293 577.684 14.032C577.94 13.4346 578.388 12.9226 579.028 12.496C579.668 12.0266 580.5 11.664 581.524 11.408C582.591 11.1093 583.935 10.96 585.556 10.96C588.287 10.96 590.314 11.5146 591.636 12.624C593.002 13.7333 593.919 15.5466 594.388 18.064L603.412 16.912C603.399 16.7972 603.384 16.6826 603.369 16.5683C603.248 15.6837 603.069 14.8147 602.833 13.9616C602.624 13.2047 602.369 12.4601 602.068 11.728C601.428 10.064 600.426 8.61331 599.06 7.37598C597.695 6.09598 595.903 5.07198 593.684 4.30398C591.466 3.53598 588.692 3.15198 585.364 3.15198C582.762 3.15198 580.372 3.45064 578.196 4.04798C576.02 4.60264 574.143 5.43465 572.564 6.54398C571.028 7.65331 569.812 9.03998 568.916 10.704C568.063 12.368 567.636 14.288 567.636 16.464C567.636 18.64 567.956 20.5173 568.596 22.096C569.236 23.6746 570.154 25.0186 571.348 26.128C572.586 27.1946 574.1 28.0693 575.892 28.752C577.684 29.4346 579.754 29.9893 582.1 30.416L588.052 31.504ZM577.428 1.14782C579.892 0.474443 582.544 0.151978 585.364 0.151978C588.898 0.151978 592.03 0.556565 594.666 1.46902C597.176 2.33794 599.357 3.54743 601.095 5.17082C602.778 6.70128 604.045 8.52391 604.856 10.6198C605.635 12.5263 606.147 14.5078 606.391 16.5573C606.586 18.1927 605.426 19.6793 603.792 19.8878L594.768 21.0398C594.743 21.043 594.719 21.0459 594.694 21.0484C598.014 22.1003 600.789 23.5672 602.859 25.5574C605.924 28.4588 607.244 32.5067 607.244 37.2C607.244 39.5942 606.784 41.8693 605.834 43.9866C604.913 46.0915 603.519 47.9168 601.717 49.4618L601.711 49.4665C599.896 51.0152 597.684 52.1463 595.168 52.9235C592.584 53.7648 589.662 54.152 586.452 54.152C579.85 54.152 574.306 52.7566 570.25 49.5325L570.217 49.5059C566.106 46.1427 564.093 41.2125 563.808 35.2307C563.769 34.4112 564.067 33.6115 564.633 33.0177C565.199 32.424 565.984 32.088 566.804 32.088H576.345C575.823 31.9202 575.316 31.7428 574.824 31.5554C572.762 30.7699 570.932 29.7301 569.39 28.4002C569.362 28.3761 569.334 28.3515 569.307 28.3264C567.776 26.9049 566.614 25.1899 565.816 23.2231C564.997 21.2022 564.636 18.9237 564.636 16.464C564.636 13.8899 565.143 11.487 566.247 9.33503C566.256 9.31715 566.265 9.29937 566.275 9.28168C567.386 7.21751 568.905 5.48597 570.808 4.11194L570.84 4.08941C572.754 2.74448 574.967 1.77807 577.428 1.14782ZM578.176 32.6214C579.25 32.9043 580.379 33.1522 581.561 33.3671ZM592.568 20.4489C591.997 20.0129 591.581 19.3721 591.439 18.6138C591.042 16.4847 590.354 15.4472 589.745 14.9523L589.72 14.9318L589.709 14.9226C589.163 14.4647 587.969 13.96 585.556 13.96C584.094 13.96 583.046 14.0974 582.333 14.2969C582.306 14.3044 582.279 14.3116 582.252 14.3184C581.488 14.5095 581.044 14.7382 580.802 14.9152C580.766 14.9417 580.73 14.9673 580.693 14.9921C580.564 15.0776 580.499 15.1424 580.47 15.1755C580.462 15.185 580.456 15.1926 580.452 15.1982C580.449 15.2024 580.447 15.2055 580.445 15.2075C580.443 15.2119 580.442 15.2137 580.442 15.2137C580.343 15.4436 580.3 15.6607 580.3 15.888C580.3 16.9907 580.575 17.3602 580.705 17.4882C581.113 17.8265 582.134 18.3431 584.222 18.7697C584.227 18.7706 584.231 18.7715 584.235 18.7723L590.492 19.9852C591.202 20.126 591.894 20.2803 592.568 20.4489ZM217.445 38.864C215.482 41.5946 212.496 42.96 208.485 42.96C204.474 42.96 201.488 41.5946 199.525 38.864C197.562 36.1333 196.581 32.2293 196.581 27.152C196.581 22.1173 197.562 18.2346 199.525 15.504C201.488 12.7306 204.474 11.344 208.485 11.344C212.496 11.344 215.482 12.7306 217.445 15.504C219.408 18.2346 220.389 22.1173 220.389 27.152C220.389 32.2293 219.408 36.1333 217.445 38.864Z" fill="black"/>
</svg>
