<svg width="268" height="43" viewBox="0 0 268 43" fill="none" xmlns="http://www.w3.org/2000/svg">
<path fill-rule="evenodd" clip-rule="evenodd" d="M1.08311 2.92453C1.64985 2.17116 2.53776 1.72801 3.48049 1.72801L11.5445 1.72801C12.9403 1.72801 14.1517 2.69068 14.467 4.05042L17.1015 15.4132L19.7619 4.22596C20.0833 2.87416 21.291 1.92001 22.6805 1.92001L30.2645 1.92001C31.6432 1.92001 32.8445 2.85976 33.1763 4.19798L35.9308 15.3064L38.3732 4.08974C38.6734 2.71115 39.8936 1.72801 41.3045 1.72801L48.9845 1.72801C49.919 1.72801 50.8002 2.16351 51.3678 2.9059C51.9354 3.6483 52.1246 4.6128 51.8795 5.51462L42.5675 39.7866C42.2125 41.0932 41.0264 42 39.6725 42H32.7125C31.3379 42 30.1391 41.0658 29.8034 39.7328L26.3729 26.1143L23.0508 39.712C22.7226 41.0551 21.5191 42 20.1365 42H13.3685C12.0319 42 10.8566 41.1158 10.4861 39.8316L0.598065 5.55964C0.33673 4.65385 0.516375 3.6779 1.08311 2.92453ZM26.3285 13.656L32.7125 39H39.6725L48.9845 4.72801L41.3045 4.72801L36.1205 28.536L30.2645 4.92001L22.6805 4.92001L17.0645 28.536L11.5445 4.72801L3.48049 4.72801L13.3685 39H20.1365L26.3285 13.656ZM87.5866 30.3376L87.5741 30.3007C86.7184 27.7336 86.3161 24.9091 86.3161 21.864C86.3161 18.8189 86.7184 15.9945 87.5741 13.4273L87.5866 13.3905C88.4711 10.8475 89.7502 8.60278 91.452 6.70764L91.4745 6.6828C93.2184 4.78397 95.3127 3.33387 97.7237 2.33889C100.156 1.33521 102.825 0.864014 105.684 0.864014C108.57 0.864014 111.256 1.33343 113.693 2.33889C116.11 3.33636 118.188 4.79626 119.88 6.72034C121.584 8.62233 122.848 10.8757 123.698 13.4273C124.554 15.9945 124.956 18.8189 124.956 21.864C124.956 24.9017 124.556 27.7199 123.704 30.282C122.886 32.8404 121.637 35.1006 119.928 37.0075C118.236 38.9317 116.158 40.3916 113.741 41.3891C111.3 42.3963 108.596 42.864 105.684 42.864C102.799 42.864 100.112 42.3946 97.6757 41.3891C95.259 40.3918 93.171 38.9347 91.452 37.0204C89.7502 35.1252 88.4711 32.8805 87.5866 30.3376ZM117.684 35.016C119.092 33.448 120.148 31.56 120.852 29.352C121.588 27.144 121.956 24.648 121.956 21.864C121.956 19.08 121.588 16.584 120.852 14.376C120.116 12.168 119.044 10.28 117.636 8.71201C116.26 7.14402 114.564 5.94402 112.548 5.11201C110.532 4.28001 108.244 3.86401 105.684 3.86401C103.156 3.86401 100.884 4.28001 98.8681 5.11201C96.8521 5.94402 95.1241 7.14402 93.6841 8.71201C92.2761 10.28 91.1881 12.168 90.4201 14.376C89.6841 16.584 89.3161 19.08 89.3161 21.864C89.3161 24.648 89.6841 27.144 90.4201 29.352C91.1881 31.56 92.2761 33.448 93.6841 35.016C95.0921 36.584 96.8041 37.784 98.8201 38.616C100.836 39.448 103.124 39.864 105.684 39.864C108.276 39.864 110.58 39.448 112.596 38.616C114.612 37.784 116.308 36.584 117.684 35.016ZM109.92 14.8789L109.907 14.861C109.104 13.7264 107.871 13.008 105.636 13.008C103.401 13.008 102.168 13.7264 101.365 14.861L101.352 14.8789C100.388 16.2201 99.7081 18.4206 99.7081 21.864C99.7081 25.3459 100.391 27.5595 101.352 28.8971C102.148 30.0039 103.383 30.72 105.636 30.72C107.89 30.72 109.125 30.0039 109.92 28.8971C110.882 27.5595 111.564 25.3459 111.564 21.864C111.564 18.4206 110.884 16.2201 109.92 14.8789ZM163.273 4.72801C163.273 3.07116 164.616 1.72801 166.273 1.72801L178.417 1.72801C181.298 1.72801 183.881 2.0652 186.052 2.86314C188.104 3.57618 189.912 4.59805 191.307 6.03117C192.606 7.3353 193.559 8.86189 194.096 10.5984C194.564 12.0823 194.809 13.5848 194.809 15.096C194.809 17.6542 194.347 20.0256 193.258 22.0729C192.552 23.3997 191.579 24.5348 190.402 25.4993L196.243 37.705C196.688 38.6346 196.625 39.7274 196.075 40.5992C195.526 41.4711 194.568 42 193.537 42H185.809C184.627 42 183.554 41.3053 183.071 40.226L178.106 29.136H176.329V39C176.329 40.6569 174.986 42 173.329 42H166.273C164.616 42 163.273 40.6569 163.273 39V4.72801ZM173.329 26.136H180.049L185.809 39H193.537L186.577 24.456C188.465 23.432 189.809 22.168 190.609 20.664C191.409 19.16 191.809 17.304 191.809 15.096C191.809 13.912 191.617 12.712 191.233 11.496C190.849 10.248 190.161 9.12801 189.169 8.13602C188.177 7.11202 186.801 6.29602 185.041 5.68802C183.313 5.04801 181.105 4.72801 178.417 4.72801L166.273 4.72801V39H173.329V26.136ZM181.345 11.016C182.177 11.24 182.817 11.576 183.265 12.024C183.745 12.44 184.081 12.936 184.273 13.512C184.465 14.056 184.561 14.632 184.561 15.24C184.561 15.976 184.481 16.648 184.321 17.256C184.161 17.864 183.857 18.392 183.409 18.84C182.993 19.256 182.417 19.592 181.681 19.848C180.945 20.072 180.017 20.184 178.897 20.184H173.329V10.632H178.273C179.521 10.632 180.545 10.76 181.345 11.016ZM176.329 13.632V17.184H178.897C179.797 17.184 180.392 17.0956 180.754 16.9937C181.149 16.8492 181.279 16.7279 181.288 16.7187C181.363 16.6432 181.396 16.5827 181.42 16.4925C181.504 16.1718 181.561 15.761 181.561 15.24C181.561 14.9536 181.517 14.7168 181.444 14.5105C181.438 14.4939 181.433 14.4773 181.427 14.4607C181.413 14.4193 181.393 14.3716 181.3 14.2911C181.248 14.2459 181.198 14.1988 181.149 14.1501C181.138 14.1416 180.994 14.0284 180.565 13.9129C180.52 13.9007 180.475 13.8875 180.431 13.8733C180.033 13.7458 179.346 13.632 178.273 13.632H176.329ZM233.033 4.72801C233.033 3.07116 234.376 1.72801 236.033 1.72801L243.233 1.72801C244.889 1.72801 246.233 3.07116 246.233 4.72801V10.7616L253.648 2.69735C254.216 2.07957 255.017 1.72801 255.857 1.72801L263.681 1.72801C264.861 1.72801 265.931 2.41974 266.416 3.49555C266.901 4.57137 266.71 5.83144 265.928 6.71537L255.996 17.9462L267.513 37.4762C268.06 38.4037 268.068 39.5531 267.534 40.488C267 41.423 266.005 42 264.929 42H256.961C255.888 42 254.896 41.427 254.361 40.4972L246.69 27.1781L246.233 27.6463V39C246.233 40.6569 244.889 42 243.233 42H236.033C234.376 42 233.033 40.6569 233.033 39V4.72801ZM243.233 26.424L247.313 22.248L256.961 39H264.929L252.305 17.592L263.681 4.72801L255.857 4.72801L243.233 18.456V4.72801L236.033 4.72801V39H243.233V26.424ZM112.356 30.648C110.884 32.696 108.644 33.72 105.636 33.72C102.628 33.72 100.388 32.696 98.9161 30.648C97.4441 28.6 96.7081 25.672 96.7081 21.864C96.7081 18.088 97.4441 15.176 98.9161 13.128C100.388 11.048 102.628 10.008 105.636 10.008C108.644 10.008 110.884 11.048 112.356 13.128C113.828 15.176 114.564 18.088 114.564 21.864C114.564 25.672 113.828 28.6 112.356 30.648Z" fill="black" opacity="1"/>
</svg>
