<svg width="263" height="42" viewBox="0 0 263 42" fill="none" xmlns="http://www.w3.org/2000/svg">
<path fill-rule="evenodd" clip-rule="evenodd" d="M0.606151 2.05586C1.17312 1.30523 2.05934 0.864 3.00003 0.864H7.99203C9.3646 0.864 10.5621 1.79553 10.8998 3.12591L15.2088 20.1015L19.6844 3.23841C20.0334 1.92348 21.2236 1.008 22.584 1.008H27.336C28.6983 1.008 29.8895 1.92584 30.2369 3.24305L34.6629 20.0274L38.9231 3.13056C39.2591 1.79791 40.4577 0.864 41.832 0.864H46.536C47.4733 0.864 48.3567 1.30204 48.924 2.0481C49.4913 2.79416 49.6774 3.7625 49.4269 4.66568L39.9229 38.9377C39.5627 40.2368 38.3801 41.136 37.032 41.136H32.376C31.0165 41.136 29.827 40.2218 29.4771 38.9081L24.7717 21.2405L20.1586 38.8945C19.8135 40.2149 18.6208 41.136 17.256 41.136H12.744C11.4031 41.136 10.2251 40.2462 9.85839 38.9564L0.114389 4.68443C-0.142866 3.7796 0.039186 2.80649 0.606151 2.05586ZM24.744 9.48L32.376 38.136H37.032L46.536 3.864H41.832L34.728 32.04L27.336 4.008H22.584L15.144 32.04L7.99203 3.864H3.00003L12.744 38.136H17.256L24.744 9.48ZM95.6464 40.6397C95.6278 40.6324 95.6094 40.6249 95.5909 40.6172C93.2824 39.6553 91.2641 38.2597 89.5627 36.4423C89.5477 36.4263 89.5329 36.4101 89.5183 36.3937C87.8375 34.5176 86.578 32.2649 85.6989 29.701C84.8032 27.0885 84.3848 24.1899 84.3848 21.048C84.3848 17.9061 84.8032 15.0075 85.6989 12.395L85.7116 12.359C86.6224 9.8085 87.8942 7.5687 89.5663 5.70226L89.5893 5.67683C91.2912 3.82019 93.3159 2.39868 95.6389 1.43077L95.6551 1.42409C98.0002 0.462998 100.519 0 103.177 0C105.85 0 108.367 0.457152 110.687 1.41935C113.05 2.35361 115.092 3.76531 116.777 5.64238C118.466 7.49203 119.726 9.73343 120.605 12.2931C121.503 14.8801 121.921 17.7661 121.921 20.904C121.921 24.0423 121.503 26.9474 120.615 29.5808C119.768 32.1533 118.522 34.4148 116.835 36.2977C115.152 38.1771 113.113 39.6048 110.755 40.5726C108.424 41.5423 105.883 42 103.177 42C100.507 42 97.9858 41.5601 95.6464 40.6397ZM109.609 37.8C111.561 37 113.225 35.832 114.601 34.296C115.977 32.76 117.033 30.872 117.769 28.632C118.537 26.36 118.921 23.784 118.921 20.904C118.921 18.024 118.537 15.48 117.769 13.272C117.001 11.032 115.929 9.16 114.553 7.656C113.177 6.12 111.513 4.968 109.561 4.2C107.641 3.4 105.513 3 103.177 3C100.873 3 98.7448 3.4 96.7928 4.2C94.8728 5 93.2088 6.168 91.8008 7.704C90.4248 9.24 89.3368 11.128 88.5368 13.368C87.7688 15.608 87.3848 18.168 87.3848 21.048C87.3848 23.928 87.7688 26.488 88.5368 28.728C89.3048 30.968 90.3768 32.856 91.7528 34.392C93.1608 35.896 94.8248 37.048 96.7448 37.848C98.6968 38.616 100.841 39 103.177 39C105.545 39 107.689 38.6 109.609 37.8ZM106.66 31.4563L106.685 31.4446C107.666 30.976 108.453 30.3375 109.085 29.5145C109.755 28.6088 110.307 27.4745 110.7 26.0599C111.098 24.599 111.313 22.9197 111.313 21C111.313 19.1126 111.098 17.468 110.702 16.0429L110.698 16.0294C110.305 14.5872 109.742 13.4504 109.055 12.5571C109.049 12.5495 109.043 12.5419 109.037 12.5342C109.033 12.5288 109.029 12.5235 109.025 12.5181C108.379 11.6486 107.599 11.0019 106.66 10.5437C105.765 10.1067 104.631 9.84 103.177 9.84C101.69 9.84 100.518 10.1069 99.5849 10.5498C98.649 11.0091 97.8494 11.6596 97.1696 12.5377C96.5093 13.4315 95.9592 14.5699 95.5641 16.0109C95.1932 17.4488 94.9928 19.105 94.9928 21C94.9928 22.9242 95.1926 24.6125 95.564 26.0843C95.9573 27.4878 96.5065 28.6143 97.173 29.5149C97.8127 30.3485 98.5911 30.9861 99.5371 31.4503C100.464 31.8901 101.65 32.16 103.177 32.16C104.631 32.16 105.765 31.8933 106.66 31.4563ZM98.2328 34.152C96.8568 33.48 95.7048 32.536 94.7768 31.32C93.8488 30.072 93.1448 28.584 92.6648 26.856C92.2168 25.096 91.9928 23.144 91.9928 21C91.9928 18.888 92.2168 16.968 92.6648 15.24C93.1448 13.48 93.8488 11.976 94.7768 10.728C95.7368 9.48 96.9048 8.52 98.2808 7.848C99.6888 7.176 101.321 6.84 103.177 6.84C105.001 6.84 106.601 7.176 107.977 7.848C109.353 8.52 110.505 9.48 111.433 10.728C112.393 11.976 113.113 13.48 113.593 15.24C114.073 16.968 114.313 18.888 114.313 21C114.313 23.144 114.073 25.096 113.593 26.856C113.113 28.584 112.409 30.072 111.481 31.32C110.553 32.536 109.385 33.48 107.977 34.152C106.601 34.824 105.001 35.16 103.177 35.16C101.289 35.16 99.6408 34.824 98.2328 34.152ZM160.688 3.864C160.688 2.20715 162.031 0.864 163.688 0.864H174.92C177.673 0.864 180.139 1.16946 182.206 1.89903C184.114 2.57232 185.808 3.51595 187.132 4.82558C188.422 6.0404 189.37 7.4953 189.885 9.17935C190.322 10.6105 190.544 12.0737 190.544 13.56C190.544 16.1583 189.989 18.5698 188.731 20.6598C187.942 22.0053 186.873 23.1102 185.596 24.0045L191.606 36.866C192.04 37.7951 191.969 38.8817 191.419 39.7469C190.868 40.6121 189.913 41.136 188.888 41.136H183.944C182.765 41.136 181.695 40.4452 181.21 39.3705L175.592 26.928H171.056V38.136C171.056 39.7929 169.713 41.136 168.056 41.136H163.688C162.031 41.136 160.688 39.7929 160.688 38.136V3.864ZM168.056 23.928H176.12C176.6 23.896 177.048 23.848 177.464 23.784L183.944 38.136H188.888L181.688 22.728C182.054 22.5757 182.403 22.413 182.732 22.2399C184.274 21.4306 185.414 20.3933 186.152 19.128C187.08 17.592 187.544 15.736 187.544 13.56C187.544 12.376 187.368 11.208 187.016 10.056C186.664 8.904 186.008 7.88 185.048 6.984C184.12 6.056 182.84 5.304 181.208 4.728C179.576 4.152 177.48 3.864 174.92 3.864H163.688V38.136H168.056V23.928ZM178.808 8.04C177.752 7.752 176.408 7.608 174.776 7.608H168.056V20.136H175.352C176.888 20.136 178.152 19.992 179.144 19.704C180.136 19.384 180.92 18.952 181.496 18.408C182.072 17.832 182.472 17.144 182.696 16.344C182.92 15.544 183.032 14.648 183.032 13.656C183.032 12.696 182.904 11.848 182.648 11.112C182.392 10.376 181.944 9.752 181.304 9.24C180.696 8.696 179.864 8.296 178.808 8.04ZM178.266 16.8347C178.895 16.627 179.234 16.4067 179.407 16.2538C179.594 16.0575 179.724 15.8326 179.807 15.5351C179.945 15.0436 180.032 14.4258 180.032 13.656C180.032 12.9566 179.938 12.4529 179.814 12.0976C179.754 11.9235 179.653 11.7608 179.43 11.5826C179.387 11.5481 179.345 11.5125 179.304 11.4757C179.166 11.3527 178.83 11.1322 178.101 10.9556C178.073 10.9489 178.046 10.9418 178.019 10.9343C177.312 10.7417 176.258 10.608 174.776 10.608H171.056V17.136H175.352C176.698 17.136 177.643 17.0095 178.266 16.8347ZM229.416 3.864C229.416 2.20715 230.759 0.864 232.416 0.864H236.88C238.537 0.864 239.88 2.20715 239.88 3.864V12.9301L250.817 1.76473C251.381 1.18865 252.154 0.864 252.96 0.864H258C259.201 0.864 260.286 1.58009 260.758 2.68417C261.231 3.78826 260.999 5.06759 260.17 5.93601L249.544 17.0619L261.788 36.5394C262.369 37.4639 262.402 38.6311 261.874 39.5869C261.346 40.5427 260.34 41.136 259.248 41.136H254.16C253.127 41.136 252.167 40.6047 251.618 39.7295L242.003 24.3921L239.88 26.5146V38.136C239.88 39.7929 238.537 41.136 236.88 41.136H232.416C230.759 41.136 229.416 39.7929 229.416 38.136V3.864ZM236.88 25.272L242.544 19.608L254.16 38.136H259.248L245.76 16.68L258 3.864H252.96L236.88 20.28V3.864H232.416V38.136H236.88V25.272Z" fill="black"/>
</svg>
