<svg width="270" height="45" viewBox="0 0 270 45" fill="none" xmlns="http://www.w3.org/2000/svg">
<path fill-rule="evenodd" clip-rule="evenodd" d="M1.28302 3.32337C2.03867 2.31888 3.22254 1.72801 4.47953 1.72801L12.5435 1.72801C14.4046 1.72801 16.0198 3.01157 16.4402 4.82456L18.1129 12.039L19.788 4.9946C20.2167 3.19221 21.8269 1.92001 23.6795 1.92001L31.2635 1.92001C33.1019 1.92001 34.7035 3.17301 35.1459 4.9573L36.8667 11.8965L38.3951 4.87699C38.7953 3.03886 40.4223 1.72801 42.3035 1.72801L49.9835 1.72801C51.2296 1.72801 52.4044 2.30867 53.1612 3.29853C53.918 4.2884 54.1703 5.5744 53.8436 6.77682L44.5316 41.0488C44.0583 42.7909 42.4767 44 40.6715 44H33.7115C31.8787 44 30.2804 42.7544 29.8327 40.9771L27.3868 31.2671L25.0212 40.9494C24.5837 42.7402 22.979 44 21.1355 44H14.3675C12.5854 44 11.0183 42.8211 10.5243 41.1088L0.636287 6.83685C0.287841 5.62913 0.527367 4.32786 1.28302 3.32337ZM27.3275 14.656L33.7115 40H40.6715L49.9835 5.72801L42.3035 5.72801L37.1195 29.536L31.2635 5.92001L23.6795 5.92001L18.0635 29.536L12.5435 5.72801L4.47953 5.72801L14.3675 40H21.1355L27.3275 14.656ZM87.6412 31.6661C87.6355 31.6497 87.6299 31.6334 87.6244 31.6169C86.7288 28.9301 86.3152 25.9961 86.3152 22.864C86.3152 19.7319 86.7288 16.7979 87.6244 14.1111C87.6269 14.1036 87.6295 14.096 87.632 14.0885C87.635 14.0796 87.6381 14.0708 87.6412 14.0619C88.5645 11.4073 89.9073 9.0437 91.707 7.03951L91.737 7.00639C93.5821 4.99729 95.7987 3.46383 98.3412 2.41452C100.912 1.35361 103.714 0.864014 106.683 0.864014C109.677 0.864014 112.497 1.35123 115.073 2.41452C117.624 3.46716 119.829 5.01369 121.627 7.05643C123.43 9.06971 124.757 11.4448 125.646 14.1111C126.542 16.7979 126.955 19.7319 126.955 22.864C126.955 25.9865 126.544 28.912 125.654 31.5921C124.798 34.2676 123.484 36.6518 121.675 38.6715C119.877 40.7143 117.672 42.2609 115.121 43.3135C112.539 44.3791 109.702 44.864 106.683 44.864C103.689 44.864 100.87 44.3768 98.2932 43.3135C95.743 42.261 93.5296 40.7183 91.707 38.6885C89.9073 36.6843 88.5645 34.3207 87.6412 31.6661ZM118.683 36.016C120.091 34.448 121.147 32.56 121.851 30.352C122.587 28.144 122.955 25.648 122.955 22.864C122.955 20.08 122.587 17.584 121.851 15.376C121.115 13.168 120.043 11.28 118.635 9.71201C117.259 8.14402 115.563 6.94402 113.547 6.11201C111.531 5.28001 109.243 4.86401 106.683 4.86401C104.155 4.86401 101.883 5.28001 99.8672 6.11201C97.8512 6.94402 96.1232 8.14402 94.6832 9.71201C93.2752 11.28 92.1872 13.168 91.4192 15.376C90.6832 17.584 90.3152 20.08 90.3152 22.864C90.3152 25.648 90.6832 28.144 91.4192 30.352C92.1872 32.56 93.2752 34.448 94.6832 36.016C96.0912 37.584 97.8032 38.784 99.8192 39.616C101.835 40.448 104.123 40.864 106.683 40.864C109.275 40.864 111.579 40.448 113.595 39.616C115.611 38.784 117.307 37.584 118.683 36.016ZM99.9152 14.128C98.4432 16.176 97.7072 19.088 97.7072 22.864C97.7072 26.672 98.4432 29.6 99.9152 31.648C101.387 33.696 103.627 34.72 106.635 34.72C109.643 34.72 111.883 33.696 113.355 31.648C114.827 29.6 115.563 26.672 115.563 22.864C115.563 19.088 114.827 16.176 113.355 14.128C111.883 12.048 109.643 11.008 106.635 11.008C103.627 11.008 101.387 12.048 99.9152 14.128ZM110.107 16.4626L110.09 16.4387C109.51 15.6192 108.613 15.008 106.635 15.008C104.658 15.008 103.76 15.6192 103.18 16.4387L103.163 16.4626C102.369 17.5681 101.707 19.5315 101.707 22.864C101.707 26.2372 102.372 28.2126 103.163 29.3135C103.733 30.1065 104.633 30.72 106.635 30.72C108.637 30.72 109.537 30.1065 110.107 29.3135C110.898 28.2126 111.563 26.2372 111.563 22.864C111.563 19.5315 110.902 17.5681 110.107 16.4626ZM163.272 5.72801C163.272 3.51888 165.063 1.72801 167.272 1.72801L179.416 1.72801C182.363 1.72801 185.07 2.0711 187.387 2.92138C189.539 3.66985 191.49 4.76068 193.019 6.32961C194.422 7.73963 195.463 9.40403 196.051 11.3059C196.546 12.877 196.808 14.4781 196.808 16.096C196.808 18.771 196.325 21.3142 195.14 23.5425C194.489 24.766 193.637 25.8312 192.632 26.7547L198.144 38.2733C198.738 39.5127 198.653 40.9698 197.921 42.1323C197.188 43.2948 195.91 44 194.536 44H186.808C185.232 44 183.802 43.0737 183.158 41.6347L178.457 31.136H178.328V40C178.328 42.2092 176.537 44 174.328 44H167.272C165.063 44 163.272 42.2092 163.272 40V5.72801ZM174.328 27.136H181.048L186.808 40H194.536L187.576 25.456C189.464 24.432 190.808 23.168 191.608 21.664C192.408 20.16 192.808 18.304 192.808 16.096C192.808 14.912 192.616 13.712 192.232 12.496C191.848 11.248 191.16 10.128 190.168 9.13602C189.176 8.11202 187.8 7.29602 186.04 6.68802C184.312 6.04801 182.104 5.72801 179.416 5.72801L167.272 5.72801V40H174.328V27.136ZM182.344 12.016C181.544 11.76 180.52 11.632 179.272 11.632H174.328V21.184H179.896C181.016 21.184 181.944 21.072 182.68 20.848C183.416 20.592 183.992 20.256 184.408 19.84C184.856 19.392 185.16 18.864 185.32 18.256C185.48 17.648 185.56 16.976 185.56 16.24C185.56 15.632 185.464 15.056 185.272 14.512C185.08 13.936 184.744 13.44 184.264 13.024C183.816 12.576 183.176 12.24 182.344 12.016ZM181.499 17.0198C181.483 17.0265 181.465 17.0335 181.446 17.0408C181.192 17.1072 180.704 17.184 179.896 17.184H178.328V15.632H179.272C180.287 15.632 180.861 15.7411 181.125 15.8257C181.184 15.8447 181.244 15.8623 181.304 15.8785C181.412 15.9075 181.486 15.9336 181.531 15.952C181.549 16.029 181.56 16.1226 181.56 16.24C181.56 16.5606 181.535 16.8173 181.499 17.0198ZM233.032 5.72801C233.032 3.51888 234.823 1.72801 237.032 1.72801L244.232 1.72801C246.441 1.72801 248.232 3.51888 248.232 5.72801V9.19683L253.911 3.02046C254.669 2.19676 255.737 1.72801 256.856 1.72801L264.68 1.72801C266.253 1.72801 267.68 2.65031 268.327 4.08473C268.973 5.51915 268.718 7.19925 267.676 8.37783L258.226 19.0642L269.373 37.9682C270.102 39.2049 270.113 40.7375 269.401 41.9841C268.689 43.2306 267.363 44 265.928 44H257.96C256.529 44 255.207 43.236 254.493 41.9963L248.232 31.1239V40C248.232 42.2092 246.441 44 244.232 44L237.032 44C234.823 44 233.032 42.2092 233.032 40V5.72801ZM257.96 40H265.928L253.304 18.592L264.68 5.72801L256.856 5.72801L244.232 19.456V5.72801L237.032 5.72801V40L244.232 40V27.424L248.312 23.248L257.96 40Z" fill="black"/>
</svg>
